<svg width="60" height="60" viewBox="0 0 60 60" fill="none" xmlns="http://www.w3.org/2000/svg">
<path d="M30.0009 34.4289L17.7509 46.6789C17.2925 47.1372 16.7092 47.3664 16.0009 47.3664C15.2925 47.3664 14.7092 47.1372 14.2509 46.6789C13.7925 46.2206 13.5634 45.6372 13.5634 44.9289C13.5634 44.2206 13.7925 43.6372 14.2509 43.1789L26.5009 30.9289L14.2509 18.6789C13.7925 18.2206 13.5634 17.6372 13.5634 16.9289C13.5634 16.2206 13.7925 15.6372 14.2509 15.1789C14.7092 14.7206 15.2925 14.4914 16.0009 14.4914C16.7092 14.4914 17.2925 14.7206 17.7509 15.1789L30.0009 27.4289L42.2509 15.1789C42.7092 14.7206 43.2925 14.4914 44.0009 14.4914C44.7092 14.4914 45.2925 14.7206 45.7509 15.1789C46.2092 15.6372 46.4384 16.2206 46.4384 16.9289C46.4384 17.6372 46.2092 18.2206 45.7509 18.6789L33.5009 30.9289L45.7509 43.1789C46.2092 43.6372 46.4384 44.2206 46.4384 44.9289C46.4384 45.6372 46.2092 46.2206 45.7509 46.6789C45.2925 47.1372 44.7092 47.3664 44.0009 47.3664C43.2925 47.3664 42.7092 47.1372 42.2509 46.6789L30.0009 34.4289Z" fill="black"/>
</svg>
