<?xml version="1.0" encoding="utf-8"?>
<svg xmlns="http://www.w3.org/2000/svg">
  <defs>
    <!-- Logo -->
    <symbol id="logo" viewBox="0 0 60 60">
      <path d="M30 0L30 60H10V20L30 0Z"/>
      <path d="M30 60L50 40V60H30Z"/>
    </symbol>


    <!-- Company logos -->
    <symbol id="github" viewBox="0 0 66 66">
      <path d="M31.9047 0C14.2622 0 0 14.4375 0 32.2987C0 46.576 9.13829 58.6615 21.8155 62.939C23.4005 63.2605 23.9811 62.244 23.9811 61.3889C23.9811 60.6401 23.9288 58.0735 23.9288 55.3993C15.0537 57.3247 13.2056 51.5491 13.2056 51.5491C11.7793 47.8058 9.66596 46.8438 9.66596 46.8438C6.76114 44.8652 9.87755 44.8652 9.87755 44.8652C13.0998 45.0791 14.7905 48.1806 14.7905 48.1806C17.6425 53.0998 22.238 51.7099 24.0869 50.8541C24.3507 48.7686 25.1964 47.3248 26.0944 46.5229C19.0158 45.7741 11.5683 42.9936 11.5683 30.5872C11.5683 27.0578 12.8353 24.1703 14.8428 21.9247C14.526 21.1227 13.4165 17.8067 15.1602 13.3685C15.1602 13.3685 17.854 12.5127 23.9282 16.6838C26.5287 15.9768 29.2106 15.6172 31.9047 15.6142C34.5985 15.6142 37.3447 15.9889 39.8805 16.6838C45.9553 12.5127 48.6491 13.3685 48.6491 13.3685C50.3928 17.8067 49.2826 21.1227 48.9659 21.9247C51.0263 24.1703 52.241 27.0578 52.241 30.5872C52.241 42.9936 44.7935 45.7203 37.662 46.5229C38.8245 47.5387 39.8276 49.4635 39.8276 52.5118C39.8276 56.8431 39.7753 60.3192 39.7753 61.3882C39.7753 62.244 40.3566 63.2605 41.9409 62.9396C54.6181 58.6609 63.7564 46.576 63.7564 32.2987C63.8087 14.4375 49.4942 0 31.9047 0Z"/>
    </symbol>
    <symbol id="linkedin" viewBox="0 0 64 64">
      <path fill-rule="evenodd" clip-rule="evenodd" d="M56.8889 64H7.11111C3.18375 64 0 60.8163 0 56.8889V7.11111C0 3.18375 3.18375 0 7.11111 0H56.8889C60.8163 0 64 3.18375 64 7.11111V56.8889C64 60.8163 60.8163 64 56.8889 64ZM45.6139 55.1111H55.1111V35.6011C55.1111 27.3462 50.4317 23.3549 43.8956 23.3549C37.3565 23.3549 34.6045 28.447 34.6045 28.447V24.2963H25.4519V55.1111H34.6045V38.9352C34.6045 34.601 36.5997 32.0218 40.4184 32.0218C43.9287 32.0218 45.6139 34.5002 45.6139 38.9352V55.1111ZM8.88889 14.5751C8.88889 17.7153 11.4152 20.2613 14.5328 20.2613C17.6503 20.2613 20.1751 17.7153 20.1751 14.5751C20.1751 11.435 17.6503 8.88889 14.5328 8.88889C11.4152 8.88889 8.88889 11.435 8.88889 14.5751ZM19.3506 55.1111H9.80671V24.2963H19.3506V55.1111Z"/>
    </symbol>
    <symbol id="youtube" viewBox="0 0 64 64">
      <path fill-rule="evenodd" clip-rule="evenodd" d="M57.0414 10.3765C59.7828 11.1177 61.9442 13.2883 62.6823 16.0412C64.053 21.0707 64.0003 31.5531 64.0003 31.5531C64.0003 31.5531 64.0003 41.9826 62.6823 47.0121C61.9442 49.765 59.7828 51.9356 57.0414 52.6768C52.0331 54.0004 32.0001 54.0004 32.0001 54.0004C32.0001 54.0004 12.0198 54.0004 6.95884 52.6239C4.21748 51.8827 2.05602 49.7121 1.31796 46.9591C0 41.9826 0 31.5002 0 31.5002C0 31.5002 0 21.0707 1.31796 16.0412C2.05602 13.2883 4.2702 11.0647 6.95884 10.3235C11.9671 9 32.0001 9 32.0001 9C32.0001 9 52.0331 9 57.0414 10.3765ZM25.6211 21.8648L42.2801 31.5002L25.6211 41.1355V21.8648Z"/>
    </symbol>
    <symbol id="itch" viewBox="0 0 64 64">
      <path d="M8.40568 3.35869C5.59336 5.02853 0.0525519 11.3939 0 13.0632V15.8264C0 19.329 3.27398 22.4074 6.24658 22.4074C9.81591 22.4074 12.7898 19.4493 12.7901 15.9383C12.7901 19.4493 15.662 22.4074 19.2316 22.4074C22.8015 22.4074 25.5812 19.4493 25.5812 15.9383C25.5812 19.4493 28.635 22.4074 32.2046 22.4074H32.2692C35.8391 22.4074 38.8929 19.4493 38.8929 15.9383C38.8929 19.4493 41.6729 22.4074 45.2422 22.4074C48.8118 22.4074 51.6838 19.4493 51.6838 15.9383C51.6838 19.4493 54.6582 22.4074 58.2273 22.4074C61.1999 22.4074 64.4738 19.3295 64.4738 15.8264V13.0632C64.4213 11.3936 58.8805 5.028 56.0687 3.35869C47.3277 3.05179 41.268 2.99871 32.2367 3.00002C23.2056 3.00081 10.8932 3.14191 8.40515 3.35869H8.40568ZM25.536 20.7578C25.1947 21.3528 24.772 21.8972 24.28 22.3751C22.9326 23.6926 21.0857 24.5093 19.0495 24.5093C17.0902 24.5111 15.2083 23.7445 13.808 22.3741C13.3198 21.8959 12.9488 21.3845 12.609 20.7891L12.6075 20.7902C12.268 21.3866 11.795 21.8977 11.3058 22.3764C9.90491 23.7458 8.02322 24.5118 6.06423 24.51C5.81881 24.51 5.56341 24.4423 5.35688 24.3713C5.06995 27.3594 4.94881 30.2151 4.90598 32.2972L4.90546 32.309C4.9002 33.3664 4.89495 34.2358 4.88969 35.4437C4.94487 41.7132 4.26879 55.764 7.65392 59.2164C12.8997 60.4395 22.5524 60.9966 32.2364 61H32.238C41.9217 60.9966 51.5745 60.4395 56.8202 59.2164C60.2053 55.7637 59.5292 41.7129 59.5844 35.4435C59.5786 34.2358 59.5739 33.3664 59.5686 32.3088L59.5679 32.2969C59.5253 30.2143 59.4042 27.3589 59.1172 24.3708C58.9107 24.4417 58.6556 24.5095 58.4099 24.5095C56.4509 24.5113 54.5692 23.7453 53.1684 22.3759C52.6791 21.8972 52.2061 21.3864 51.8664 20.7896L51.8648 20.7886C51.5248 21.384 51.154 21.8956 50.6658 22.3736C49.2656 23.7439 47.3838 24.5104 45.4246 24.5085C43.3887 24.5085 41.5415 23.6913 40.1941 22.3741C39.7021 21.8961 39.2794 21.3518 38.9381 20.7568C38.6004 21.3511 38.1816 21.8954 37.6937 22.3741C36.293 23.7442 34.411 24.5106 32.4516 24.5087C32.3807 24.5087 32.3097 24.5056 32.2388 24.5035H32.2369C32.166 24.5056 32.095 24.5087 32.0233 24.5087C30.064 24.5107 28.1819 23.7444 26.7812 22.3743C26.2933 21.8957 25.8745 21.3514 25.5368 20.7571L25.536 20.7578ZM20.1531 27.7183L20.1526 27.721H20.1566C22.2883 27.7254 24.182 27.721 26.5285 30.2818C28.3751 30.0882 30.3049 29.9915 32.2361 29.9944H32.2377C34.169 29.9917 36.0987 30.0882 37.9456 30.2818C40.2921 27.7207 42.1858 27.7252 44.3176 27.721H44.3212L44.3207 27.7183C45.3279 27.7183 49.3568 27.7183 52.1641 35.603L55.1795 46.4195C57.414 54.4662 54.464 54.663 50.7843 54.6701C45.3273 54.467 42.3059 50.5041 42.3059 46.5417C39.2852 47.0367 35.7613 47.2842 32.2375 47.2845H32.2359C28.7117 47.2845 25.1879 47.0367 22.1675 46.5417C22.1675 50.5041 19.1457 54.467 13.689 54.6701C10.0093 54.663 7.05956 54.4665 9.29407 46.4195L12.3103 35.6032C15.1176 27.7186 19.1465 27.7186 20.1537 27.7186L20.1531 27.7183ZM32.2361 33.9147V33.9163C32.2309 33.9216 26.4914 39.1925 25.4596 41.0673L29.2181 40.9168V44.1944C29.2181 44.3479 30.7263 44.2853 32.2361 44.2154H32.2377C33.747 44.2853 35.2555 44.3479 35.2555 44.1944V40.9168L39.014 41.0673C37.9819 39.1925 32.2375 33.9163 32.2375 33.9163V33.9147L32.2367 33.9153L32.2361 33.9147Z"/>
    </symbol>
    <symbol id="gmail" viewBox="0 0 64 64">
      <path d="M53.5273 9.32147C57.84 6.08511 64 9.16147 64 14.5578V51.6488C64 54.056 62.0509 56.0124 59.6364 56.0124H49.4545V31.2851L32 44.376L14.5455 31.2851V56.0124H4.36364C1.95636 56.0124 0 54.0633 0 51.6488V14.5578C0 9.16147 6.15273 6.08511 10.4727 9.32147L32 25.4669L53.5273 9.32147Z"/>
    </symbol>
    <symbol id="windows" viewBox="0 0 24 24">
      <path d="M3 5.56849L10.3608 4.56164V11.6507H3M11.2474 4.41781L21 3V11.589H11.2474M3 12.3986H10.3608V19.5082L3 18.4808M11.2474 12.4932H21V21L11.2474 19.6233"/>
    </symbol>
    <symbol id="apple" viewBox="0 0 24 24">
      <path d="M19.489 7.81868C19.375 7.90869 17.3625 9.06281 17.3625 11.6291C17.3625 14.5974 19.9234 15.6475 20 15.6735C19.9882 15.7375 19.5932 17.1116 18.6498 18.5118C17.8086 19.7439 16.9301 20.974 15.5937 20.974C14.2572 20.974 13.9133 20.1839 12.3705 20.1839C10.867 20.1839 10.3324 21 9.10994 21C7.88748 21 7.03452 19.8599 6.0538 18.4597C4.91782 16.8156 4 14.2613 4 11.8371C4 7.94869 6.48422 5.88649 8.92912 5.88649C10.2282 5.88649 11.3111 6.75458 12.1268 6.75458C12.9031 6.75458 14.1137 5.83448 15.5917 5.83448C16.1518 5.83448 18.1644 5.88649 19.489 7.81868ZM14.8901 4.18832C15.5013 3.45024 15.9337 2.42614 15.9337 1.40204C15.9337 1.26003 15.9219 1.11601 15.8963 1C14.9019 1.038 13.7187 1.67407 13.0053 2.51615C12.4452 3.16422 11.9224 4.18832 11.9224 5.22642C11.9224 5.38244 11.9479 5.53845 11.9597 5.58846C12.0226 5.60046 12.1248 5.61446 12.227 5.61446C13.1193 5.61446 14.2415 5.0064 14.8901 4.18832Z"/>
    </symbol>


    <!-- Others -->
    <symbol id="back" viewBox="0 0 60 60">
      <path d="M19.6251 32.5L26.7501 39.625C27.2501 40.125 27.4896 40.7083 27.4688 41.375C27.448 42.0417 27.2084 42.625 26.7501 43.125C26.2501 43.625 25.6563 43.8854 24.9688 43.9062C24.2813 43.9271 23.6876 43.6875 23.1876 43.1875L11.7501 31.75C11.2501 31.25 11.0001 30.6667 11.0001 30C11.0001 29.3333 11.2501 28.75 11.7501 28.25L23.1876 16.8125C23.6876 16.3125 24.2813 16.0729 24.9688 16.0937C25.6563 16.1146 26.2501 16.375 26.7501 16.875C27.2084 17.375 27.448 17.9583 27.4688 18.625C27.4896 19.2917 27.2501 19.875 26.7501 20.375L19.6251 27.5H47.5001C48.2084 27.5 48.8021 27.7396 49.2813 28.2187C49.7605 28.6979 50.0001 29.2917 50.0001 30C50.0001 30.7083 49.7605 31.3021 49.2813 31.7812C48.8021 32.2604 48.2084 32.5 47.5001 32.5H19.6251Z"/>
    </symbol>
    <symbol id="bulb" viewBox="0 0 24 24">
      <path d="M10 18C9.45 18 8.97917 17.8042 8.5875 17.4125C8.19583 17.0208 8 16.55 8 16V14.75C7.05 14.1 6.3125 13.2667 5.7875 12.25C5.2625 11.2333 5 10.15 5 9C5 7.05 5.67917 5.39583 7.0375 4.0375C8.39583 2.67917 10.05 2 12 2C13.95 2 15.6042 2.67917 16.9625 4.0375C18.3208 5.39583 19 7.05 19 9C19 10.15 18.7375 11.2292 18.2125 12.2375C17.6875 13.2458 16.95 14.0833 16 14.75V16C16 16.55 15.8042 17.0208 15.4125 17.4125C15.0208 17.8042 14.55 18 14 18H10ZM10 16H14V13.7L14.85 13.1C15.5333 12.6333 16.0625 12.0375 16.4375 11.3125C16.8125 10.5875 17 9.81667 17 9C17 7.61667 16.5125 6.4375 15.5375 5.4625C14.5625 4.4875 13.3833 4 12 4C10.6167 4 9.4375 4.4875 8.4625 5.4625C7.4875 6.4375 7 7.61667 7 9C7 9.81667 7.1875 10.5875 7.5625 11.3125C7.9375 12.0375 8.46667 12.6333 9.15 13.1L10 13.7V16ZM10 22C9.71667 22 9.47917 21.9042 9.2875 21.7125C9.09583 21.5208 9 21.2833 9 21V20H15V21C15 21.2833 14.9042 21.5208 14.7125 21.7125C14.5208 21.9042 14.2833 22 14 22H10Z"/>
    </symbol>
    <symbol id="close" viewBox="0 0 60 60">
      <path d="M30.0009 34.4289L17.7509 46.6789C17.2925 47.1372 16.7092 47.3664 16.0009 47.3664C15.2925 47.3664 14.7092 47.1372 14.2509 46.6789C13.7925 46.2206 13.5634 45.6372 13.5634 44.9289C13.5634 44.2206 13.7925 43.6372 14.2509 43.1789L26.5009 30.9289L14.2509 18.6789C13.7925 18.2206 13.5634 17.6372 13.5634 16.9289C13.5634 16.2206 13.7925 15.6372 14.2509 15.1789C14.7092 14.7206 15.2925 14.4914 16.0009 14.4914C16.7092 14.4914 17.2925 14.7206 17.7509 15.1789L30.0009 27.4289L42.2509 15.1789C42.7092 14.7206 43.2925 14.4914 44.0009 14.4914C44.7092 14.4914 45.2925 14.7206 45.7509 15.1789C46.2092 15.6372 46.4384 16.2206 46.4384 16.9289C46.4384 17.6372 46.2092 18.2206 45.7509 18.6789L33.5009 30.9289L45.7509 43.1789C46.2092 43.6372 46.4384 44.2206 46.4384 44.9289C46.4384 45.6372 46.2092 46.2206 45.7509 46.6789C45.2925 47.1372 44.7092 47.3664 44.0009 47.3664C43.2925 47.3664 42.7092 47.1372 42.2509 46.6789L30.0009 34.4289Z"/>
    </symbol>
    <symbol id="hourglass" viewBox="0 0 24 24">
      <path d="M18 22L17.99 16L14 12L17.99 7.99L18 2H6V8L10 12L6 15.99V22H18ZM8 7.5V4H16V7.5L12 11.5L8 7.5Z"/>
    </symbol>
    <symbol id="info" viewBox="0 0 24 24">
      <path d="M13 8C13 8.55229 12.5523 9 12 9C11.4477 9 11 8.55229 11 8C11 7.44772 11.4477 7 12 7C12.5523 7 13 7.44772 13 8Z"/>
      <path d="M13 17V11H11V17H13Z"/>
      <path fill-rule="evenodd" clip-rule="evenodd" d="M12 22C17.5228 22 22 17.5228 22 12C22 6.47715 17.5228 2 12 2C6.47715 2 2 6.47715 2 12C2 17.5228 6.47715 22 12 22ZM12 20C16.4183 20 20 16.4183 20 12C20 7.58172 16.4183 4 12 4C7.58172 4 4 7.58172 4 12C4 16.4183 7.58172 20 12 20Z"/>
    </symbol>
    <symbol id="pin" viewBox="0 0 24 24">
      <path d="M12 19.35C14.0333 17.4833 15.5417 15.7875 16.525 14.2625C17.5083 12.7375 18 11.3833 18 10.2C18 8.38333 17.4208 6.89583 16.2625 5.7375C15.1042 4.57917 13.6833 4 12 4C10.3167 4 8.89583 4.57917 7.7375 5.7375C6.57917 6.89583 6 8.38333 6 10.2C6 11.3833 6.49167 12.7375 7.475 14.2625C8.45833 15.7875 9.96667 17.4833 12 19.35ZM12 21.325C11.7667 21.325 11.5333 21.2833 11.3 21.2C11.0667 21.1167 10.8583 20.9917 10.675 20.825C9.59167 19.825 8.63333 18.85 7.8 17.9C6.96667 16.95 6.27083 16.0292 5.7125 15.1375C5.15417 14.2458 4.72917 13.3875 4.4375 12.5625C4.14583 11.7375 4 10.95 4 10.2C4 7.7 4.80417 5.70833 6.4125 4.225C8.02083 2.74167 9.88333 2 12 2C14.1167 2 15.9792 2.74167 17.5875 4.225C19.1958 5.70833 20 7.7 20 10.2C20 10.95 19.8542 11.7375 19.5625 12.5625C19.2708 13.3875 18.8458 14.2458 18.2875 15.1375C17.7292 16.0292 17.0333 16.95 16.2 17.9C15.3667 18.85 14.4083 19.825 13.325 20.825C13.1417 20.9917 12.9333 21.1167 12.7 21.2C12.4667 21.2833 12.2333 21.325 12 21.325ZM12 12C12.55 12 13.0208 11.8042 13.4125 11.4125C13.8042 11.0208 14 10.55 14 10C14 9.45 13.8042 8.97917 13.4125 8.5875C13.0208 8.19583 12.55 8 12 8C11.45 8 10.9792 8.19583 10.5875 8.5875C10.1958 8.97917 10 9.45 10 10C10 10.55 10.1958 11.0208 10.5875 11.4125C10.9792 11.8042 11.45 12 12 12Z"/>
    </symbol>
    <symbol id="document" viewBox="0 0 24 24">
      <path d="M8 13H16V11H8V13ZM8 16H16V14H8V16ZM8 19H13V17H8V19ZM6 22C5.45 22 4.97917 21.8042 4.5875 21.4125C4.19583 21.0208 4 20.55 4 20V4C4 3.45 4.19583 2.97917 4.5875 2.5875C4.97917 2.19583 5.45 2 6 2H14L20 8V20C20 20.55 19.8042 21.0208 19.4125 21.4125C19.0208 21.8042 18.55 22 18 22H6ZM13 9V4H6V20H18V9H13Z"/>
    </symbol>
    <symbol id="warning" viewBox="0 0 24 24">
      <path d="M2.72479 21C2.54146 21 2.37479 20.9542 2.22479 20.8625C2.07479 20.7708 1.95812 20.65 1.87479 20.5C1.79146 20.35 1.74562 20.1875 1.73729 20.0125C1.72896 19.8375 1.77479 19.6667 1.87479 19.5L11.1248 3.5C11.2248 3.33333 11.354 3.20833 11.5123 3.125C11.6706 3.04167 11.8331 3 11.9998 3C12.1665 3 12.329 3.04167 12.4873 3.125C12.6456 3.20833 12.7748 3.33333 12.8748 3.5L22.1248 19.5C22.2248 19.6667 22.2706 19.8375 22.2623 20.0125C22.254 20.1875 22.2081 20.35 22.1248 20.5C22.0415 20.65 21.9248 20.7708 21.7748 20.8625C21.6248 20.9542 21.4581 21 21.2748 21H2.72479ZM4.44979 19H19.5498L11.9998 6L4.44979 19ZM11.9998 18C12.2831 18 12.5206 17.9042 12.7123 17.7125C12.904 17.5208 12.9998 17.2833 12.9998 17C12.9998 16.7167 12.904 16.4792 12.7123 16.2875C12.5206 16.0958 12.2831 16 11.9998 16C11.7165 16 11.479 16.0958 11.2873 16.2875C11.0956 16.4792 10.9998 16.7167 10.9998 17C10.9998 17.2833 11.0956 17.5208 11.2873 17.7125C11.479 17.9042 11.7165 18 11.9998 18ZM11.9998 15C12.2831 15 12.5206 14.9042 12.7123 14.7125C12.904 14.5208 12.9998 14.2833 12.9998 14V11C12.9998 10.7167 12.904 10.4792 12.7123 10.2875C12.5206 10.0958 12.2831 10 11.9998 10C11.7165 10 11.479 10.0958 11.2873 10.2875C11.0956 10.4792 10.9998 10.7167 10.9998 11V14C10.9998 14.2833 11.0956 14.5208 11.2873 14.7125C11.479 14.9042 11.7165 15 11.9998 15Z"/>
    </symbol>
    <symbol id="download" viewBox="0 0 24 24">
      <path d="M12 16L7 11L8.4 9.55L11 12.15V4H13V12.15L15.6 9.55L17 11L12 16ZM6 20C5.45 20 4.97917 19.8042 4.5875 19.4125C4.19583 19.0208 4 18.55 4 18V15H6V18H18V15H20V18C20 18.55 19.8042 19.0208 19.4125 19.4125C19.0208 19.8042 18.55 20 18 20H6Z"/>
    </symbol>
    <symbol id="location" viewBox="0 0 34 33">
        <path d="M14 17.35C16.0333 15.4833 17.5416 13.7875 18.525 12.2625C19.5083 10.7375 20 9.38333 20 8.2C20 6.38333 19.4208 4.89583 18.2625 3.7375C17.1041 2.57917 15.6833 2 14 2C12.3166 2 10.8958 2.57917 9.73748 3.7375C8.57914 4.89583 7.99998 6.38333 7.99998 8.2C7.99998 9.38333 8.49164 10.7375 9.47498 12.2625C10.4583 13.7875 11.9666 15.4833 14 17.35ZM14 19.325C13.7666 19.325 13.5333 19.2833 13.3 19.2C13.0666 19.1167 12.8583 18.9917 12.675 18.825C11.5916 17.825 10.6333 16.85 9.79998 15.9C8.96664 14.95 8.27081 14.0292 7.71248 13.1375C7.15414 12.2458 6.72914 11.3875 6.43748 10.5625C6.14581 9.7375 5.99998 8.95 5.99998 8.2C5.99998 5.7 6.80414 3.70833 8.41248 2.225C10.0208 0.741667 11.8833 0 14 0C16.1166 0 17.9791 0.741667 19.5875 2.225C21.1958 3.70833 22 5.7 22 8.2C22 8.95 21.8541 9.7375 21.5625 10.5625C21.2708 11.3875 20.8458 12.2458 20.2875 13.1375C19.7291 14.0292 19.0333 14.95 18.2 15.9C17.3666 16.85 16.4083 17.825 15.325 18.825C15.1416 18.9917 14.9333 19.1167 14.7 19.2C14.4666 19.2833 14.2333 19.325 14 19.325ZM14 10C14.55 10 15.0208 9.80417 15.4125 9.4125C15.8041 9.02083 16 8.55 16 8C16 7.45 15.8041 6.97917 15.4125 6.5875C15.0208 6.19583 14.55 6 14 6C13.45 6 12.9791 6.19583 12.5875 6.5875C12.1958 6.97917 12 7.45 12 8C12 8.55 12.1958 9.02083 12.5875 9.4125C12.9791 9.80417 13.45 10 14 10Z"/>
        <path d="M26 11L26.0986 11.0049C26.3276 11.0276 26.5429 11.1288 26.707 11.293L28.1972 12.7832L29.5527 12.1055C29.9377 11.913 30.4026 11.9886 30.707 12.293L33.707 15.293C34.013 15.599 34.0876 16.0673 33.8916 16.4531L32.8916 18.4219C32.7236 18.7523 32.3863 18.9629 32.0156 18.9688L30.622 18.9902L26.8945 26.4473C26.8251 26.5861 26.7238 26.7067 26.5996 26.7998L22.5996 29.7998C22.4265 29.9296 22.2163 30 22 30H17.2773L12.5146 32.8574C12.3013 32.9854 12.0476 33.0293 11.8037 32.9805L6.80369 31.9805C6.61017 31.9417 6.4325 31.8466 6.29294 31.707L2.29294 27.707C2.24638 27.6605 2.20447 27.6095 2.16794 27.5547L0.167945 24.5547C-0.0964705 24.1581 -0.0441199 23.63 0.292945 23.293L1.12595 22.459L1.9199 20.0771L1.10544 18.4473C0.951283 18.1389 0.96677 17.7727 1.14646 17.4785C1.32611 17.1845 1.64468 17.0037 1.98923 17L3.99998 16.9785V16C3.99998 15.6325 4.20199 15.2947 4.52537 15.1201C4.84868 14.9457 5.24166 14.9625 5.5488 15.1641L8.5488 17.1328C9.01033 17.4359 9.13885 18.0559 8.83591 18.5176C8.53284 18.9791 7.91279 19.1076 7.45115 18.8047L5.99998 17.8516V17.9688C5.99989 18.5168 5.55871 18.9629 5.01072 18.9688L3.60935 18.9824L3.89451 19.5527C4.01312 19.79 4.03209 20.0648 3.94822 20.3164L2.94822 23.3164C2.89911 23.4636 2.81671 23.5973 2.70701 23.707L2.28611 24.127L3.77732 26.3633L7.49216 30.0781L11.8164 30.9434L16.4853 28.1426L16.6064 28.0811C16.7304 28.028 16.8642 28 17 28H21.667L25.2099 25.3418L29.1054 17.5527C29.2723 17.219 29.6113 17.0059 29.9844 17L31.3808 16.9775L31.7793 16.1934L29.8027 14.2168L28.4472 14.8945C28.0623 15.087 27.5973 15.0114 27.2929 14.707L25.5859 13H25.414L23.707 14.707C23.3165 15.0976 22.6835 15.0976 22.2929 14.707C21.9024 14.3165 21.9024 13.6835 22.2929 13.293L24.2929 11.293L24.3662 11.2266C24.5441 11.0807 24.7679 11 25 11H26Z" fill="#444"/>
    </symbol>
    <symbol id="document-large" viewBox="0 0 24 24">
      <path d="M8.8845 12.3077H15.1155C15.2572 12.3077 15.3759 12.2597 15.4718 12.1637C15.5676 12.0677 15.6155 11.9488 15.6155 11.807C15.6155 11.6652 15.5676 11.5465 15.4718 11.451C15.3759 11.3555 15.2572 11.3077 15.1155 11.3077H8.8845C8.74283 11.3077 8.62408 11.3558 8.52825 11.4518C8.43242 11.5476 8.3845 11.6664 8.3845 11.8082C8.3845 11.9502 8.43242 12.069 8.52825 12.1645C8.62408 12.26 8.74283 12.3077 8.8845 12.3077ZM8.8845 15.077H15.1155C15.2572 15.077 15.3759 15.029 15.4718 14.933C15.5676 14.837 15.6155 14.7181 15.6155 14.5763C15.6155 14.4344 15.5676 14.3158 15.4718 14.2203C15.3759 14.1248 15.2572 14.077 15.1155 14.077H8.8845C8.74283 14.077 8.62408 14.1249 8.52825 14.2207C8.43242 14.3167 8.3845 14.4357 8.3845 14.5775C8.3845 14.7195 8.43242 14.8383 8.52825 14.9338C8.62408 15.0293 8.74283 15.077 8.8845 15.077ZM8.8845 17.8462H12.1155C12.2572 17.8462 12.3759 17.7982 12.4717 17.7022C12.5676 17.6062 12.6155 17.4873 12.6155 17.3455C12.6155 17.2037 12.5676 17.085 12.4717 16.9895C12.3759 16.894 12.2572 16.8462 12.1155 16.8462H8.8845C8.74283 16.8462 8.62408 16.8942 8.52825 16.99C8.43242 17.086 8.3845 17.2049 8.3845 17.3468C8.3845 17.4886 8.43242 17.6073 8.52825 17.703C8.62408 17.7985 8.74283 17.8462 8.8845 17.8462ZM6.6155 21C6.15517 21 5.77083 20.8458 5.4625 20.5375C5.15417 20.2292 5 19.8448 5 19.3845V4.6155C5 4.15517 5.15417 3.77083 5.4625 3.4625C5.77083 3.15417 6.15517 3 6.6155 3H13.8288C14.0499 3 14.2607 3.04358 14.461 3.13075C14.6613 3.21792 14.8339 3.33392 14.9788 3.47875L18.5212 7.02125C18.6661 7.16608 18.7821 7.33867 18.8693 7.539C18.9564 7.73933 19 7.95008 19 8.17125V19.3845C19 19.8448 18.8458 20.2292 18.5375 20.5375C18.2292 20.8458 17.8448 21 17.3845 21H6.6155ZM18 8H15.2115C14.875 8 14.5889 7.88225 14.3533 7.64675C14.1178 7.41108 14 7.125 14 6.7885V4H6.6155C6.4615 4 6.32042 4.06408 6.19225 4.19225C6.06408 4.32042 6 4.4615 6 4.6155V19.3845C6 19.5385 6.06408 19.6796 6.19225 19.8078C6.32042 19.9359 6.4615 20 6.6155 20H17.3845C17.5385 20 17.6796 19.9359 17.8077 19.8078C17.9359 19.6796 18 19.5385 18 19.3845V8Z"/>
    </symbol>
    <symbol id="document-medium" viewBox="0 0 24 24">
      <path d="M8.94225 12.6538H15.0577C15.2702 12.6538 15.4483 12.5818 15.592 12.438C15.7358 12.2943 15.8077 12.1162 15.8077 11.9035C15.8077 11.6908 15.7358 11.5128 15.592 11.3693C15.4483 11.2256 15.2702 11.1538 15.0577 11.1538H8.94225C8.72975 11.1538 8.55167 11.2257 8.408 11.3695C8.26417 11.5133 8.19225 11.6916 8.19225 11.9043C8.19225 12.1168 8.26417 12.2948 8.408 12.4385C8.55167 12.582 8.72975 12.6538 8.94225 12.6538ZM8.94225 15.5385H15.0577C15.2702 15.5385 15.4483 15.4666 15.592 15.3228C15.7358 15.1789 15.8077 15.0007 15.8077 14.788C15.8077 14.5755 15.7358 14.3974 15.592 14.2537C15.4483 14.1102 15.2702 14.0385 15.0577 14.0385H8.94225C8.72975 14.0385 8.55167 14.1104 8.408 14.2543C8.26417 14.3981 8.19225 14.5762 8.19225 14.7887C8.19225 15.0014 8.26417 15.1795 8.408 15.323C8.55167 15.4667 8.72975 15.5385 8.94225 15.5385ZM8.94225 18.423H12.0578C12.2703 18.423 12.4483 18.3511 12.592 18.2072C12.7358 18.0634 12.8077 17.8853 12.8077 17.6728C12.8077 17.4601 12.7358 17.282 12.592 17.1385C12.4483 16.9948 12.2703 16.923 12.0578 16.923H8.94225C8.72975 16.923 8.55167 16.9949 8.408 17.1388C8.26417 17.2826 8.19225 17.4608 8.19225 17.6735C8.19225 17.886 8.26417 18.0641 8.408 18.2078C8.55167 18.3513 8.72975 18.423 8.94225 18.423ZM6.30775 21.5C5.80258 21.5 5.375 21.325 5.025 20.975C4.675 20.625 4.5 20.1974 4.5 19.6923V4.30775C4.5 3.80258 4.675 3.375 5.025 3.025C5.375 2.675 5.80258 2.5 6.30775 2.5H13.502C13.7458 2.5 13.9782 2.54683 14.1992 2.6405C14.4202 2.734 14.6128 2.86283 14.777 3.027L18.973 7.223C19.1372 7.38717 19.266 7.57975 19.3595 7.80075C19.4532 8.02175 19.5 8.25417 19.5 8.498V19.6923C19.5 20.1974 19.325 20.625 18.975 20.975C18.625 21.325 18.1974 21.5 17.6923 21.5H6.30775ZM18 8.5H14.8558C14.4793 8.5 14.1592 8.36817 13.8955 8.1045C13.6318 7.84083 13.5 7.52075 13.5 7.14425V4H6.30775C6.23075 4 6.16025 4.03208 6.09625 4.09625C6.03208 4.16025 6 4.23075 6 4.30775V19.6923C6 19.7693 6.03208 19.8398 6.09625 19.9038C6.16025 19.9679 6.23075 20 6.30775 20H17.6923C17.7693 20 17.8398 19.9679 17.9038 19.9038C17.9679 19.8398 18 19.7693 18 19.6923V8.5Z"/>
    </symbol>





    <!-- Rule icons -->
    <symbol id="rule-goal" viewBox="0 0 24 24">
      <path d="M12 18C10.3333 18 8.91667 17.4167 7.75 16.25C6.58333 15.0833 6 13.6667 6 12C6 10.3333 6.58333 8.91667 7.75 7.75C8.91667 6.58333 10.3333 6 12 6C13.6667 6 15.0833 6.58333 16.25 7.75C17.4167 8.91667 18 10.3333 18 12C18 13.6667 17.4167 15.0833 16.25 16.25C15.0833 17.4167 13.6667 18 12 18ZM12 16C13.1 16 14.0417 15.6083 14.825 14.825C15.6083 14.0417 16 13.1 16 12C16 10.9 15.6083 9.95833 14.825 9.175C14.0417 8.39167 13.1 8 12 8C10.9 8 9.95833 8.39167 9.175 9.175C8.39167 9.95833 8 10.9 8 12C8 13.1 8.39167 14.0417 9.175 14.825C9.95833 15.6083 10.9 16 12 16Z"/>
    </symbol>
    <symbol id="rule-lose" viewBox="0 0 24 24">
      <path d="M11.9998 13.4L9.0998 16.3C8.91647 16.4833 8.68314 16.575 8.3998 16.575C8.11647 16.575 7.88314 16.4833 7.6998 16.3C7.51647 16.1167 7.4248 15.8833 7.4248 15.6C7.4248 15.3167 7.51647 15.0833 7.6998 14.9L10.5998 12L7.6998 9.12501C7.51647 8.94168 7.4248 8.70835 7.4248 8.42501C7.4248 8.14168 7.51647 7.90835 7.6998 7.72501C7.88314 7.54168 8.11647 7.45001 8.3998 7.45001C8.68314 7.45001 8.91647 7.54168 9.0998 7.72501L11.9998 10.625L14.8748 7.72501C15.0581 7.54168 15.2915 7.45001 15.5748 7.45001C15.8581 7.45001 16.0915 7.54168 16.2748 7.72501C16.4748 7.92501 16.5748 8.16251 16.5748 8.43751C16.5748 8.71251 16.4748 8.94168 16.2748 9.12501L13.3748 12L16.2748 14.9C16.4581 15.0833 16.5498 15.3167 16.5498 15.6C16.5498 15.8833 16.4581 16.1167 16.2748 16.3C16.0748 16.5 15.8373 16.6 15.5623 16.6C15.2873 16.6 15.0581 16.5 14.8748 16.3L11.9998 13.4Z"/>
    </symbol>
    <symbol id="rule-play" viewBox="0 0 24 24">
      <path d="M7 17.35V7C7 6.71667 7.1 6.47917 7.3 6.2875C7.5 6.09583 7.73333 6 8 6C8.08333 6 8.17083 6.0125 8.2625 6.0375C8.35417 6.0625 8.44167 6.1 8.525 6.15L16.675 11.325C16.825 11.425 16.9375 11.55 17.0125 11.7C17.0875 11.85 17.125 12.0083 17.125 12.175C17.125 12.3417 17.0875 12.5 17.0125 12.65C16.9375 12.8 16.825 12.925 16.675 13.025L8.525 18.2C8.44167 18.25 8.35417 18.2875 8.2625 18.3125C8.17083 18.3375 8.08333 18.35 8 18.35C7.73333 18.35 7.5 18.2542 7.3 18.0625C7.1 17.8708 7 17.6333 7 17.35ZM9 15.525L14.25 12.175L9 8.825V15.525Z"/>
    </symbol>
  </defs>
</svg>