<?xml version="1.0" encoding="utf-8"?>
<svg xmlns="http://www.w3.org/2000/svg">
  <defs>
    <!-- Logo -->
    <symbol id="logo" viewBox="0 0 60 60">
      <path d="M30 0L30 60H10V20L30 0Z"/>
      <path d="M30 60L50 40V60H30Z"/>
    </symbol>
    <symbol id="logo-refined" viewBox="0 0 60 60">
      <path d="M10 20.4142V59C10 59.5523 10.4477 60 11 60H49C49.5523 60 50 59.5523 50 59V42.4142C50 41.5233 48.9229 41.0771 48.2929 41.7071L31.7071 58.2929C31.0771 58.9229 30 58.4767 30 57.5858V2.41421C30 1.52331 28.9229 1.07714 28.2929 1.7071L10.2929 19.7071C10.1054 19.8946 10 20.149 10 20.4142Z"/>
    </symbol>


    <!-- Company logos -->
    <symbol id="github" viewBox="0 0 66 66">
      <path d="M31.9047 0C14.2622 0 0 14.4375 0 32.2987C0 46.576 9.13829 58.6615 21.8155 62.939C23.4005 63.2605 23.9811 62.244 23.9811 61.3889C23.9811 60.6401 23.9288 58.0735 23.9288 55.3993C15.0537 57.3247 13.2056 51.5491 13.2056 51.5491C11.7793 47.8058 9.66596 46.8438 9.66596 46.8438C6.76114 44.8652 9.87755 44.8652 9.87755 44.8652C13.0998 45.0791 14.7905 48.1806 14.7905 48.1806C17.6425 53.0998 22.238 51.7099 24.0869 50.8541C24.3507 48.7686 25.1964 47.3248 26.0944 46.5229C19.0158 45.7741 11.5683 42.9936 11.5683 30.5872C11.5683 27.0578 12.8353 24.1703 14.8428 21.9247C14.526 21.1227 13.4165 17.8067 15.1602 13.3685C15.1602 13.3685 17.854 12.5127 23.9282 16.6838C26.5287 15.9768 29.2106 15.6172 31.9047 15.6142C34.5985 15.6142 37.3447 15.9889 39.8805 16.6838C45.9553 12.5127 48.6491 13.3685 48.6491 13.3685C50.3928 17.8067 49.2826 21.1227 48.9659 21.9247C51.0263 24.1703 52.241 27.0578 52.241 30.5872C52.241 42.9936 44.7935 45.7203 37.662 46.5229C38.8245 47.5387 39.8276 49.4635 39.8276 52.5118C39.8276 56.8431 39.7753 60.3192 39.7753 61.3882C39.7753 62.244 40.3566 63.2605 41.9409 62.9396C54.6181 58.6609 63.7564 46.576 63.7564 32.2987C63.8087 14.4375 49.4942 0 31.9047 0Z"/>
    </symbol>
    <symbol id="linkedin" viewBox="0 0 64 64">
      <path fill-rule="evenodd" clip-rule="evenodd" d="M56.8889 64H7.11111C3.18375 64 0 60.8163 0 56.8889V7.11111C0 3.18375 3.18375 0 7.11111 0H56.8889C60.8163 0 64 3.18375 64 7.11111V56.8889C64 60.8163 60.8163 64 56.8889 64ZM45.6139 55.1111H55.1111V35.6011C55.1111 27.3462 50.4317 23.3549 43.8956 23.3549C37.3565 23.3549 34.6045 28.447 34.6045 28.447V24.2963H25.4519V55.1111H34.6045V38.9352C34.6045 34.601 36.5997 32.0218 40.4184 32.0218C43.9287 32.0218 45.6139 34.5002 45.6139 38.9352V55.1111ZM8.88889 14.5751C8.88889 17.7153 11.4152 20.2613 14.5328 20.2613C17.6503 20.2613 20.1751 17.7153 20.1751 14.5751C20.1751 11.435 17.6503 8.88889 14.5328 8.88889C11.4152 8.88889 8.88889 11.435 8.88889 14.5751ZM19.3506 55.1111H9.80671V24.2963H19.3506V55.1111Z"/>
    </symbol>
    <symbol id="youtube" viewBox="0 0 64 64">
      <path fill-rule="evenodd" clip-rule="evenodd" d="M57.0414 10.3765C59.7828 11.1177 61.9442 13.2883 62.6823 16.0412C64.053 21.0707 64.0003 31.5531 64.0003 31.5531C64.0003 31.5531 64.0003 41.9826 62.6823 47.0121C61.9442 49.765 59.7828 51.9356 57.0414 52.6768C52.0331 54.0004 32.0001 54.0004 32.0001 54.0004C32.0001 54.0004 12.0198 54.0004 6.95884 52.6239C4.21748 51.8827 2.05602 49.7121 1.31796 46.9591C0 41.9826 0 31.5002 0 31.5002C0 31.5002 0 21.0707 1.31796 16.0412C2.05602 13.2883 4.2702 11.0647 6.95884 10.3235C11.9671 9 32.0001 9 32.0001 9C32.0001 9 52.0331 9 57.0414 10.3765ZM25.6211 21.8648L42.2801 31.5002L25.6211 41.1355V21.8648Z"/>
    </symbol>
    <symbol id="itch" viewBox="0 0 64 64">
      <path d="M8.40568 3.35869C5.59336 5.02853 0.0525519 11.3939 0 13.0632V15.8264C0 19.329 3.27398 22.4074 6.24658 22.4074C9.81591 22.4074 12.7898 19.4493 12.7901 15.9383C12.7901 19.4493 15.662 22.4074 19.2316 22.4074C22.8015 22.4074 25.5812 19.4493 25.5812 15.9383C25.5812 19.4493 28.635 22.4074 32.2046 22.4074H32.2692C35.8391 22.4074 38.8929 19.4493 38.8929 15.9383C38.8929 19.4493 41.6729 22.4074 45.2422 22.4074C48.8118 22.4074 51.6838 19.4493 51.6838 15.9383C51.6838 19.4493 54.6582 22.4074 58.2273 22.4074C61.1999 22.4074 64.4738 19.3295 64.4738 15.8264V13.0632C64.4213 11.3936 58.8805 5.028 56.0687 3.35869C47.3277 3.05179 41.268 2.99871 32.2367 3.00002C23.2056 3.00081 10.8932 3.14191 8.40515 3.35869H8.40568ZM25.536 20.7578C25.1947 21.3528 24.772 21.8972 24.28 22.3751C22.9326 23.6926 21.0857 24.5093 19.0495 24.5093C17.0902 24.5111 15.2083 23.7445 13.808 22.3741C13.3198 21.8959 12.9488 21.3845 12.609 20.7891L12.6075 20.7902C12.268 21.3866 11.795 21.8977 11.3058 22.3764C9.90491 23.7458 8.02322 24.5118 6.06423 24.51C5.81881 24.51 5.56341 24.4423 5.35688 24.3713C5.06995 27.3594 4.94881 30.2151 4.90598 32.2972L4.90546 32.309C4.9002 33.3664 4.89495 34.2358 4.88969 35.4437C4.94487 41.7132 4.26879 55.764 7.65392 59.2164C12.8997 60.4395 22.5524 60.9966 32.2364 61H32.238C41.9217 60.9966 51.5745 60.4395 56.8202 59.2164C60.2053 55.7637 59.5292 41.7129 59.5844 35.4435C59.5786 34.2358 59.5739 33.3664 59.5686 32.3088L59.5679 32.2969C59.5253 30.2143 59.4042 27.3589 59.1172 24.3708C58.9107 24.4417 58.6556 24.5095 58.4099 24.5095C56.4509 24.5113 54.5692 23.7453 53.1684 22.3759C52.6791 21.8972 52.2061 21.3864 51.8664 20.7896L51.8648 20.7886C51.5248 21.384 51.154 21.8956 50.6658 22.3736C49.2656 23.7439 47.3838 24.5104 45.4246 24.5085C43.3887 24.5085 41.5415 23.6913 40.1941 22.3741C39.7021 21.8961 39.2794 21.3518 38.9381 20.7568C38.6004 21.3511 38.1816 21.8954 37.6937 22.3741C36.293 23.7442 34.411 24.5106 32.4516 24.5087C32.3807 24.5087 32.3097 24.5056 32.2388 24.5035H32.2369C32.166 24.5056 32.095 24.5087 32.0233 24.5087C30.064 24.5107 28.1819 23.7444 26.7812 22.3743C26.2933 21.8957 25.8745 21.3514 25.5368 20.7571L25.536 20.7578ZM20.1531 27.7183L20.1526 27.721H20.1566C22.2883 27.7254 24.182 27.721 26.5285 30.2818C28.3751 30.0882 30.3049 29.9915 32.2361 29.9944H32.2377C34.169 29.9917 36.0987 30.0882 37.9456 30.2818C40.2921 27.7207 42.1858 27.7252 44.3176 27.721H44.3212L44.3207 27.7183C45.3279 27.7183 49.3568 27.7183 52.1641 35.603L55.1795 46.4195C57.414 54.4662 54.464 54.663 50.7843 54.6701C45.3273 54.467 42.3059 50.5041 42.3059 46.5417C39.2852 47.0367 35.7613 47.2842 32.2375 47.2845H32.2359C28.7117 47.2845 25.1879 47.0367 22.1675 46.5417C22.1675 50.5041 19.1457 54.467 13.689 54.6701C10.0093 54.663 7.05956 54.4665 9.29407 46.4195L12.3103 35.6032C15.1176 27.7186 19.1465 27.7186 20.1537 27.7186L20.1531 27.7183ZM32.2361 33.9147V33.9163C32.2309 33.9216 26.4914 39.1925 25.4596 41.0673L29.2181 40.9168V44.1944C29.2181 44.3479 30.7263 44.2853 32.2361 44.2154H32.2377C33.747 44.2853 35.2555 44.3479 35.2555 44.1944V40.9168L39.014 41.0673C37.9819 39.1925 32.2375 33.9163 32.2375 33.9163V33.9147L32.2367 33.9153L32.2361 33.9147Z"/>
    </symbol>
    <symbol id="gmail" viewBox="0 0 64 64">
      <path d="M53.5273 9.32147C57.84 6.08511 64 9.16147 64 14.5578V51.6488C64 54.056 62.0509 56.0124 59.6364 56.0124H49.4545V31.2851L32 44.376L14.5455 31.2851V56.0124H4.36364C1.95636 56.0124 0 54.0633 0 51.6488V14.5578C0 9.16147 6.15273 6.08511 10.4727 9.32147L32 25.4669L53.5273 9.32147Z"/>
    </symbol>
    <symbol id="windows" viewBox="0 0 24 24">
      <path d="M3 5.56849L10.3608 4.56164V11.6507H3M11.2474 4.41781L21 3V11.589H11.2474M3 12.3986H10.3608V19.5082L3 18.4808M11.2474 12.4932H21V21L11.2474 19.6233"/>
    </symbol>
    <symbol id="apple" viewBox="0 0 24 24">
      <path d="M19.489 7.81868C19.375 7.90869 17.3625 9.06281 17.3625 11.6291C17.3625 14.5974 19.9234 15.6475 20 15.6735C19.9882 15.7375 19.5932 17.1116 18.6498 18.5118C17.8086 19.7439 16.9301 20.974 15.5937 20.974C14.2572 20.974 13.9133 20.1839 12.3705 20.1839C10.867 20.1839 10.3324 21 9.10994 21C7.88748 21 7.03452 19.8599 6.0538 18.4597C4.91782 16.8156 4 14.2613 4 11.8371C4 7.94869 6.48422 5.88649 8.92912 5.88649C10.2282 5.88649 11.3111 6.75458 12.1268 6.75458C12.9031 6.75458 14.1137 5.83448 15.5917 5.83448C16.1518 5.83448 18.1644 5.88649 19.489 7.81868ZM14.8901 4.18832C15.5013 3.45024 15.9337 2.42614 15.9337 1.40204C15.9337 1.26003 15.9219 1.11601 15.8963 1C14.9019 1.038 13.7187 1.67407 13.0053 2.51615C12.4452 3.16422 11.9224 4.18832 11.9224 5.22642C11.9224 5.38244 11.9479 5.53845 11.9597 5.58846C12.0226 5.60046 12.1248 5.61446 12.227 5.61446C13.1193 5.61446 14.2415 5.0064 14.8901 4.18832Z"/>
    </symbol>


    <!-- Laurel -->
    <symbol id="laurel-left" viewBox="0 0 272 664">
      <path d="M269.913 638.624C256.937 635.758 244.032 631.582 230.453 625.857C230.29 625.781 229.887 625.325 229.761 624.916C228.408 620.302 227.954 615.654 228.372 610.706C231.03 579.11 212.216 545.817 183.64 531.544C183.032 531.236 182.399 530.969 181.669 530.67L180.991 530.389C180.348 530.115 179.564 530.229 179.044 530.646C178.483 531.079 178.204 531.785 178.318 532.493L179.1 537.337C179.794 541.624 180.474 545.819 181.126 550.018L181.29 551.117C183.125 563.05 185.022 575.39 188.717 587.245C192.052 597.94 197.197 606.38 204.354 612.847C189.235 603.932 175.146 593.218 162.351 580.896C162.082 580.638 161.764 579.952 161.717 579.386L161.375 570.93C161.373 570.63 161.369 569.832 161.539 569.437C167.841 554.755 169.455 538.228 166.478 518.916C163.606 500.289 155.654 483.161 142.839 468.004C141.339 466.229 140.015 465.331 138.905 465.331C138.634 465.331 138.389 465.385 138.197 465.485C137.607 465.778 137.208 466.345 137.13 467.001L136.787 469.951C136.522 472.14 136.268 474.29 136.039 476.443C135.644 480.237 135.211 484.025 134.776 487.815L134.714 488.362C133.631 497.825 132.508 507.61 131.915 517.408C131.225 528.837 131.429 542.186 138.185 554.534C138.221 554.596 138.253 554.662 138.289 554.724C128.899 542.982 120.327 530.345 112.679 516.954C112.003 515.763 111.945 514.719 112.071 513.203C112.615 506.792 115.594 501.583 118.733 496.911C124.794 487.863 128.464 477.169 130.631 462.235C133.661 441.348 130.601 420.396 121.542 399.955C121.293 399.392 121.002 398.848 120.692 398.265L119.984 396.929C119.645 396.278 118.921 395.849 118.157 395.883C117.395 395.923 116.723 396.406 116.447 397.108C114.249 402.65 112.123 407.99 110.012 413.29L108.663 416.677C104.159 427.988 99.1079 441.194 96.1723 454.819C94.1029 464.434 93.9766 473.714 95.7913 482.549C88.7491 465.788 82.9602 448.076 78.5267 429.71C78.4766 429.506 78.4606 428.976 78.8997 427.755C80.973 422.081 84.7488 416.935 89.5331 413.268C100.006 405.235 105.948 394.07 110.377 384.208C119.446 364.04 121.907 342.615 117.896 318.703C117.854 318.452 117.778 318.203 117.688 317.933L117.616 317.716C117.441 317.181 117.044 316.747 116.519 316.521C116.005 316.306 115.36 316.346 114.961 316.543C114.56 316.689 113.952 316.912 113.557 317.491C111.287 320.523 108.983 323.583 106.677 326.641L106.29 327.156C100.475 334.878 94.4619 342.859 88.6829 350.81C81.9877 359.996 77.2594 368.925 74.2256 378.109C72.7618 382.544 71.8054 386.813 71.3542 390.96C69.4272 376.059 68.3344 360.846 68.0958 345.506C68.0396 341.845 68.5049 338.935 71.0053 335.749C73.6521 332.352 76.1245 330.455 79.5333 329.204C93.5395 324.086 102.525 313.272 108.787 304.424C118.903 290.108 124.836 273.451 126.926 253.499C127.148 251.446 127.275 249.369 127.405 247.171L127.437 246.672C127.499 245.603 127.565 244.49 127.65 243.311C127.702 242.529 127.283 241.795 126.583 241.44C125.905 241.099 125.037 241.2 124.447 241.699L122.785 243.123C122.159 243.656 121.624 244.113 121.069 244.558C118.4 246.702 115.721 248.823 113.036 250.951L112.755 251.171C106.862 255.84 100.766 260.666 94.9451 265.651C83.65 275.284 76.3772 284.873 72.056 295.831C71.3422 297.638 70.7166 299.425 70.1792 301.193C71.9558 283.78 74.8412 266.632 78.8034 249.994C79.2847 247.959 79.5534 247.362 80.5419 247.037C81.1635 246.826 81.743 246.421 82.1661 245.92C85.0395 242.653 88.8233 242.136 92.4888 242.062C104.72 241.775 114.421 235.673 122.296 229.742C141.604 215.2 154.898 178.305 154.898 177.053C154.898 176.402 154.573 175.794 154.022 175.427C153.478 175.068 152.744 175.018 152.191 175.265C148.169 176.971 144.146 178.633 139.981 180.356C130.818 184.156 121.343 188.082 112.244 192.375C103.086 196.708 95.8494 202.503 90.6761 209.634C95.6068 195.623 101.324 181.888 107.724 168.688C108.46 167.264 111.917 165.752 116.874 165.752C118.486 165.752 120.048 165.924 121.397 166.249C133.043 169.041 144.591 167.348 157.372 160.962C170.448 154.425 181.296 143.737 190.536 128.279C190.712 127.98 191.059 127.068 191.246 126.556C191.48 125.931 191.386 125.241 190.997 124.718C190.636 124.22 190.059 123.924 189.323 123.924C189.317 123.924 189.313 123.924 189.307 123.924L184.691 124.214C181.861 124.393 179.114 124.567 176.367 124.708L173.434 124.856C164.675 125.297 155.616 125.75 146.753 127.862C136.645 130.292 129.224 134.024 123.533 139.558C130.268 128.347 137.481 117.679 145.079 107.687C145.283 107.423 146.264 107.018 147.068 106.883C147.469 106.789 148.928 106.482 150.869 106.482C153.444 106.482 155.698 107.006 157.609 108.056C169.75 113.994 183.385 114.435 198.19 109.35C210.333 105.201 220.618 97.4951 229.633 85.7987C229.926 85.4218 230.19 85.0107 230.431 84.5776C230.706 84.0783 230.724 83.5288 230.483 83.0275C229.785 81.5638 226.765 80.876 225.494 80.6474C222.374 80.102 218.839 79.4803 215.334 79.0051C213.728 78.7805 212.12 78.5459 210.507 78.3073L210.301 78.2752C204.839 77.4691 199.192 76.635 193.504 76.3482C183.109 75.8169 173.879 77.9384 166.325 82.6345C171.404 77.2285 176.594 72.0992 181.863 67.2807C183.53 65.7608 185.415 64.2288 187.983 62.3058C188.182 62.1534 188.687 61.975 189.307 61.9389C207.512 61.227 222.661 53.1902 235.614 37.3732C242.67 28.7629 248.08 17.9027 252.157 4.17111L252.297 3.69989C252.732 2.25615 252.973 1.46208 251.972 0.531671C251.2 -0.18619 249.841 0.0263671 246.308 1.426C243.1 2.65919 239.871 3.8563 236.557 5.08548C229.897 7.55388 223.01 10.1065 216.363 12.99C205.254 17.8185 196.383 25.1375 190 34.7404C185.14 42.0473 183.219 49.3883 184.123 57.1444C184.117 57.2307 184.041 57.4372 184.029 57.4613C172.433 67.4732 161.349 78.7444 149.967 92.1592C157.557 80.5551 162.503 67.1945 164.986 51.7063C167.488 36.0919 167.647 22.1938 165.473 9.2202C165.335 8.40809 165.148 7.59599 164.91 6.57936L164.555 5.01329C164.394 4.34155 163.889 3.79814 163.225 3.5896C162.562 3.39309 161.818 3.56754 161.322 4.03876C160.528 4.7867 159.75 5.49254 158.99 6.17831L158.455 6.66157C156.51 8.41411 154.673 10.0684 153.011 11.9393C136.859 30.1605 127.439 49.4064 124.213 70.7778C122.743 80.4368 123.352 88.6601 126.077 95.9109C126.98 98.3132 128.387 100.459 129.789 102.588C130.431 103.561 131.072 104.537 131.66 105.54C132.093 106.26 132.129 106.446 132.127 106.412C131.86 109.27 131.477 112.454 130.96 116.276C130.938 116.324 130.866 116.436 130.635 116.741L130.449 117C121.616 129.277 113.467 142.221 106.134 155.618C109.017 145.612 111.313 132.947 111.151 118.231C110.954 100.579 106.89 84.8362 98.7209 70.096C98.398 69.5225 97.8125 69.1496 96.9924 69.0934C96.3968 69.0934 95.8234 69.3882 95.4484 69.8915C95.2038 70.2324 94.9551 70.5532 94.7185 70.858C94.1912 71.5398 93.6979 72.1854 93.2568 72.8752C86.752 83.0757 83.263 94.3228 80.947 102.983C76.714 118.866 74.769 132.129 74.8252 144.723C74.8573 155.429 76.8083 163.659 80.967 170.623C82.2604 172.79 83.8886 174.687 85.5248 176.596C86.393 177.609 87.2853 178.649 88.0934 179.716C88.6589 180.458 88.9316 181.214 88.9476 181.635C89.0539 184.174 88.9978 186.754 88.9436 189.249L88.9055 190.973C88.8995 191.27 88.8313 191.611 88.7291 191.872C83.5076 204.523 78.9177 217.671 75.0036 231.174C75.5791 226.576 75.904 222.124 75.9862 217.781C76.4594 193.129 68.8979 171.114 53.5061 152.339L50.2979 148.431C49.9269 147.972 49.3775 147.711 48.792 147.711L48.4711 147.739C47.7854 147.854 47.2079 148.329 46.9693 148.977C46.6765 149.757 46.3898 150.492 46.111 151.204C45.5737 152.58 45.0663 153.883 44.6372 155.209C41.3347 165.553 39.7145 176.855 39.3857 191.846L39.3797 192.138C39.133 203.045 38.7942 217.985 43.2737 232.282C47.6831 246.357 55.4592 253.469 56.9671 254.747L57.1275 254.891C61.2321 258.555 63.905 261.905 64.4584 264.081C64.681 264.959 64.9076 265.839 65.1722 266.71C66.3433 270.582 65.6114 274.271 64.8214 278.256C64.4283 280.267 64.0193 282.344 63.8769 284.476C63.3114 293.006 62.6177 301.68 61.9459 310.068L61.8858 310.844C61.7133 312.984 61.5409 315.123 61.3704 317.263C59.658 298.069 53.3016 280.622 42.3654 265.192C35.6681 255.751 27.6835 247.674 18.6281 241.18C18.2371 240.899 17.826 240.648 17.2766 240.321C17.0099 240.167 16.7011 239.982 16.3262 239.748C15.7607 239.409 15.0348 239.379 14.4513 239.664C13.8538 239.954 13.4427 240.546 13.3745 241.216C13.2522 242.429 13.1099 243.604 12.9595 244.823C12.6567 247.319 12.3699 249.678 12.3579 252.1C12.2236 277.209 17.5353 300.738 28.1507 322.025C31.1083 327.965 35.0164 333.102 39.7707 337.301C44.4848 341.441 49.572 343.884 55.3128 344.762C55.4391 344.784 55.7399 344.967 55.786 345.003C56.0968 345.626 56.4197 346.252 56.7425 346.88C57.8894 349.095 59.0745 351.387 59.664 353.685C60.1553 355.628 60.1553 357.752 60.1553 360.002C60.1553 360.826 60.1553 361.656 60.1814 362.47C60.7328 381.92 61.4567 388.694 64.5687 406.073C62.6698 400.906 60.2856 395.724 57.2077 390.739C44.7435 370.565 28.9086 356.871 8.79873 348.881C7.51943 348.365 6.23612 347.994 4.74827 347.561L4.45151 347.473C3.84795 347.297 3.2083 347.108 2.52453 346.9C1.90694 346.697 1.20312 346.835 0.699825 347.253C0.198531 347.668 -0.0641475 348.303 0.00202335 348.965C0.150406 350.345 0.25267 351.686 0.346914 352.995C0.553447 355.867 0.747949 358.578 1.44375 361.261C7.93249 386.324 18.6722 406.286 34.2745 422.289C40.9457 429.131 47.9759 433.053 55.766 434.282C57.731 434.589 60.1332 434.627 64.1997 434.374L65.3708 434.304C65.5492 434.294 65.7056 434.284 65.848 434.284C66.1688 434.284 66.1949 434.284 66.4175 434.613L71.8655 442.094C71.9357 442.193 72.038 442.548 72.1082 442.792L72.1884 443.061C77.843 462.231 84.8591 480.694 93.1324 498.218C89.4088 493.079 85.3283 488.386 80.7805 483.973C59.8666 463.68 24.1103 463.093 20.1019 463.093L19.6026 463.097L19.2878 463.155C18.3053 463.504 17.7739 464.555 18.0767 465.543C18.3554 466.476 18.6161 467.418 18.9148 468.525C19.4863 470.604 20.0799 472.752 20.912 474.829C24.8742 484.731 31.2968 494.256 41.1282 504.815C47.8836 512.054 55.4993 519.395 65.4028 524.037C76.2488 529.13 86.0421 530.373 95.7813 527.879C97.4375 527.444 99.3425 526.892 100.981 525.829C102.148 525.082 102.467 525.106 103.613 525.96C104.973 526.97 106.419 527.819 107.822 528.641C108.598 529.096 109.38 529.555 110.11 530.016C110.227 530.115 110.475 530.522 110.567 530.672C119.306 544.925 128.933 558.171 139.328 570.255C133.705 566.164 127.932 563.204 121.8 561.233C103.062 555.196 83.4214 555.964 63.9691 563.485C61.0656 564.61 57.8834 566.314 57.6709 566.435C57.2257 566.728 56.9189 567.201 56.8227 567.744C56.7385 568.278 56.8768 568.823 57.2017 569.24C57.8092 570.03 58.3968 570.824 58.9783 571.612L59.1066 571.785C60.42 573.573 61.9078 575.597 63.5761 577.389C71.0895 585.444 80.3554 590.844 89.2504 595.48C101.482 601.827 113.99 605.245 126.43 605.646C127.016 605.667 127.601 605.679 128.185 605.679C139.628 605.679 148.562 601.907 155.447 594.193C155.532 594.133 155.83 594.018 155.995 594.016C158.625 594.205 161.126 594.588 162.995 594.899C163.29 594.951 163.652 595.127 163.879 595.332C175.383 605.516 187.566 614.455 200.293 622.063C198.364 621.492 196.377 620.994 194.344 620.595C180.743 617.98 166.863 619.621 151.621 625.676C141.339 629.775 131.776 635.797 122.386 644.084C121.612 644.764 121.504 645.933 122.141 646.743C125.464 650.972 129.787 653.34 133.579 655.097C142.827 659.394 153.266 662.145 165.503 663.513C165.539 663.515 169.471 663.855 174.986 663.855C178.966 663.855 182.67 663.677 185.988 663.326C189.16 662.993 192.324 662.45 195.394 661.712C209.495 658.279 219.049 651.221 224.524 640.262C224.622 640.168 225.043 639.923 225.576 639.793C228.121 639.161 230.411 638.716 232.588 638.425C233.102 638.343 233.741 638.482 234.547 638.806C244.285 642.558 254.589 645.684 265.154 648.094C265.303 648.131 265.457 648.149 265.612 648.149C266.321 648.149 266.975 647.758 267.32 647.12C268.329 645.243 269.558 643.442 270.971 641.768C271.415 641.241 271.547 640.539 271.328 639.889C271.12 639.26 270.59 638.782 269.913 638.624Z"/>
    </symbol>
    <symbol id="laurel-right" viewBox="0 0 272 664">
      <path d="M271.283 347.259C270.778 346.841 270.044 346.709 269.472 346.902C268.775 347.116 268.135 347.303 267.531 347.479L267.237 347.565C265.749 348 264.464 348.373 263.19 348.885C243.074 356.877 227.237 370.571 214.773 390.745C211.695 395.73 209.311 400.912 207.412 406.079C210.526 388.698 211.248 381.926 211.8 362.478C211.826 361.662 211.826 360.832 211.826 360.008C211.826 357.758 211.826 355.632 212.317 353.693C212.906 351.395 214.092 349.103 215.238 346.886C215.561 346.258 215.884 345.63 216.151 345.079C216.243 344.971 216.542 344.788 216.658 344.77C222.411 343.892 227.498 341.449 232.214 337.305C236.967 333.108 240.875 327.971 243.832 322.031C254.448 300.744 259.759 277.215 259.625 252.106C259.613 249.684 259.328 247.325 259.016 244.761C258.873 243.612 258.729 242.437 258.608 241.22C258.54 240.552 258.129 239.958 257.534 239.67C256.946 239.385 256.236 239.405 255.643 239.764C255.284 239.988 254.977 240.171 254.698 240.333C254.159 240.654 253.748 240.905 253.359 241.186C244.304 247.676 236.317 255.757 229.618 265.198C218.685 280.628 212.327 298.075 210.615 317.269C210.444 315.129 210.272 312.99 210.099 310.85L210.039 310.074C209.367 301.686 208.674 293.012 208.108 284.482C207.966 282.322 207.551 280.221 207.15 278.188C206.376 274.279 205.644 270.588 206.815 266.72C207.081 265.845 207.306 264.965 207.531 264.087C208.084 261.911 210.757 258.561 214.862 254.897L215.016 254.759C216.53 253.475 224.306 246.361 228.717 232.289C233.195 217.991 232.856 203.053 232.609 192.144L232.603 191.854C232.274 176.859 230.654 165.56 227.35 155.211C226.923 153.887 226.415 152.582 225.878 151.21C225.599 150.496 225.314 149.759 225.022 148.987C224.781 148.333 224.204 147.858 223.528 147.745L223.197 147.715C222.612 147.715 222.064 147.978 221.693 148.431L218.483 152.343C203.091 171.116 195.53 193.133 196.003 217.785C196.085 222.126 196.41 226.58 196.985 231.178C193.073 217.677 188.485 204.535 183.268 191.892C183.16 191.615 183.089 191.272 183.081 190.981L183.045 189.253C182.991 186.758 182.935 184.178 183.041 181.639C183.057 181.218 183.33 180.462 183.898 179.718C184.704 178.653 185.598 177.613 186.524 176.53C188.102 174.693 189.733 172.796 191.024 170.631C195.183 163.665 197.136 155.435 197.168 144.73C197.224 132.127 195.281 118.864 191.046 102.989C188.732 94.3289 185.239 83.0777 178.734 72.8772C178.293 72.1915 177.8 71.5458 177.274 70.862C177.038 70.5592 176.789 70.2364 176.537 69.8895C176.168 69.3942 175.658 69.1055 174.836 69.1055C174.18 69.1536 173.595 69.5266 173.268 70.1061C165.103 84.8423 161.037 100.585 160.844 118.235C160.68 132.951 162.978 145.614 165.859 155.622C158.526 142.225 150.377 129.281 141.544 117.004L141.342 116.725C141.141 116.458 141.057 116.328 141.071 116.42C140.516 112.448 140.131 109.27 139.864 106.502C139.87 106.46 139.922 106.228 140.335 105.538C140.919 104.543 141.558 103.569 142.238 102.538C143.602 100.465 145.009 98.3192 145.911 95.917C148.635 88.6662 149.246 80.4428 147.776 70.7858C144.55 49.4124 135.128 30.1665 118.978 11.9453C117.316 10.0744 115.479 8.42013 113.536 6.6716L112.999 6.18433C112.239 5.49655 111.459 4.79273 110.671 4.0488C110.169 3.57156 109.451 3.3931 108.756 3.59763C108.098 3.80617 107.591 4.35158 107.434 5.02934L107.081 6.57736C106.841 7.60402 106.654 8.41412 106.516 9.22823C104.342 22.2019 104.501 36.0979 107.003 51.7144C109.486 67.2025 114.432 80.5612 122.022 92.1652C110.64 78.7545 99.5699 67.4933 88 57.5134C87.9479 57.4452 87.8717 57.2387 87.8657 57.1866C88.77 49.3964 86.8491 42.0573 81.9885 34.7504C75.6061 25.1475 66.7372 17.8285 55.6285 13C48.9813 10.1165 42.0935 7.56391 35.3501 5.06343C32.1198 3.86432 28.8894 2.66922 25.5628 1.3879C22.2202 0.058454 20.7905 -0.17816 20.0145 0.539701C19.016 1.47011 19.2566 2.26418 19.6917 3.70792L19.832 4.17913C23.9086 17.9107 29.3185 28.7709 36.3748 37.3792C49.3282 53.1982 64.4773 61.2351 82.6643 61.9449C83.3019 61.983 83.8071 62.1594 84.0137 62.3199C86.5743 64.2368 88.4592 65.7708 90.1255 67.2908C95.3951 72.1072 100.585 77.2385 105.662 82.6426C98.1101 77.9504 88.8803 75.8329 78.4855 76.3583C72.7968 76.645 67.1502 77.4792 61.6901 78.2853L61.4816 78.3173C59.8674 78.554 58.2613 78.7886 56.6591 79.0152C53.1501 79.4904 49.613 80.112 46.4889 80.6574C45.2236 80.884 42.2018 81.5718 41.506 83.0376C41.2654 83.5389 41.2855 84.0883 41.5582 84.5876C41.7988 85.0227 42.0635 85.4318 42.3522 85.8048C51.3695 97.5051 61.656 105.211 73.7993 109.36C88.6055 114.445 102.205 114.026 114.424 108.044C116.293 107.016 118.547 106.494 121.122 106.494C123.065 106.494 124.522 106.801 125.006 106.911C125.729 107.032 126.712 107.437 126.912 107.698C134.512 117.689 141.725 128.361 148.46 139.572C142.769 134.038 135.348 130.306 125.238 127.876C116.377 125.764 107.318 125.311 98.5593 124.87L95.6257 124.722C92.8786 124.581 90.1316 124.407 87.3023 124.228L82.558 123.936C81.9444 123.936 81.3609 124.232 81.004 124.726C80.609 125.257 80.5147 125.947 80.7473 126.566C80.9378 127.084 81.2847 127.996 81.4632 128.301C90.701 143.753 101.549 154.441 114.623 160.978C127.404 167.362 138.952 169.051 150.6 166.265C151.947 165.941 153.509 165.768 155.123 165.768C160.078 165.768 163.533 167.28 164.259 168.68C170.667 181.9 176.386 195.637 181.319 209.65C176.146 202.517 168.911 196.724 159.751 192.391C150.652 188.096 141.177 184.17 131.855 180.306C127.849 178.649 123.826 176.987 119.822 175.287C119.227 175.026 118.523 175.08 117.967 175.447C117.422 175.81 117.097 176.416 117.097 177.067C117.097 178.319 130.392 215.216 149.699 229.756C157.576 235.687 167.277 241.789 179.51 242.076C183.172 242.15 186.957 242.667 189.817 245.918C190.254 246.435 190.833 246.838 191.465 247.053C192.442 247.374 192.71 247.971 193.192 250.008C197.154 266.644 200.039 283.79 201.816 301.201C201.278 299.435 200.655 297.65 199.939 295.843C195.618 284.885 188.345 275.296 177.052 265.665C171.231 260.68 165.135 255.854 159.24 251.183L158.959 250.963C156.274 248.835 153.595 246.716 150.924 244.57C150.373 244.127 149.836 243.67 149.212 243.137L147.546 241.709C146.962 241.216 146.094 241.113 145.412 241.454C144.712 241.809 144.293 242.543 144.347 243.327C144.43 244.504 144.496 245.617 144.558 246.686L144.59 247.185C144.722 249.385 144.847 251.46 145.069 253.51C147.159 273.463 153.092 290.122 163.208 304.438C169.47 313.286 178.454 324.103 192.462 329.218C195.87 330.469 198.343 332.364 200.992 335.765C203.49 338.949 203.955 341.859 203.899 345.52C203.661 360.858 202.568 376.073 200.641 390.974C200.19 386.827 199.235 382.558 197.769 378.123C194.736 368.939 190.007 360.01 183.312 350.826C177.533 342.873 171.52 334.892 165.705 327.17L165.318 326.655C163.012 323.597 160.708 320.535 158.464 317.54C158.043 316.924 157.435 316.703 157.084 316.581C156.587 316.338 155.994 316.314 155.466 316.539C154.949 316.759 154.552 317.195 154.377 317.728L154.309 317.937C154.213 318.217 154.137 318.466 154.097 318.715C150.086 342.629 152.547 364.054 161.616 384.222C166.046 394.084 171.987 405.249 182.462 413.282C187.244 416.949 191.02 422.095 193.093 427.767C193.532 428.988 193.516 429.518 193.466 429.722C189.033 448.086 183.242 465.798 176.202 482.561C178.014 473.726 177.89 464.446 175.821 454.831C172.883 441.204 167.834 427.998 163.33 416.689L161.981 413.302C159.87 408.002 157.744 402.66 155.548 397.124C155.27 396.416 154.598 395.933 153.702 395.889C152.996 395.889 152.346 396.292 152.009 396.945L151.301 398.277C150.991 398.86 150.7 399.404 150.451 399.965C141.392 420.406 138.332 441.361 141.362 462.247C143.527 477.181 147.197 487.875 153.26 496.923C156.399 501.599 159.38 506.808 159.922 513.215C160.05 514.731 159.99 515.775 159.314 516.965C151.666 530.357 143.092 542.996 133.702 554.739C133.738 554.674 133.772 554.61 133.808 554.546C140.564 542.2 140.768 528.851 140.078 517.42C139.483 507.62 138.36 497.835 137.279 488.374L137.217 487.827C136.782 484.037 136.349 480.249 135.954 476.453C135.725 474.302 135.471 472.15 135.208 469.967L134.861 467.011C134.785 466.357 134.386 465.792 133.812 465.507C132.746 464.95 131.019 465.81 129.154 468.016C116.339 483.173 108.387 500.301 105.515 518.928C102.538 538.24 104.152 554.767 110.456 569.453C110.624 569.844 110.62 570.642 110.618 570.908L110.279 579.358C110.229 579.966 109.909 580.652 109.644 580.906C96.8468 593.23 82.7585 603.944 67.6395 612.861C74.7959 606.392 79.9412 597.953 83.2758 587.257C86.9714 575.402 88.8683 563.064 90.707 551.101L90.8674 550.036C91.5191 545.833 92.1989 541.638 92.8926 537.351L93.6766 532.505C93.7889 531.799 93.5103 531.093 92.9628 530.67C92.4194 530.237 91.6334 530.133 91.0078 530.401L90.324 530.684C89.5941 530.983 88.9585 531.25 88.359 531.556C59.7772 545.831 40.9626 579.126 43.6215 610.72C44.0385 615.668 43.5854 620.317 42.2339 624.92C42.1076 625.34 41.7025 625.795 41.5381 625.871C27.963 631.596 15.0558 635.773 2.06824 638.64C1.40052 638.794 0.871105 639.272 0.654546 639.915C0.435982 640.563 0.568345 641.267 1.01349 641.796C2.42514 643.469 3.65431 645.267 4.66492 647.15C5.07999 647.92 6.06851 648.315 6.80842 648.123C17.3897 645.708 27.6943 642.582 37.4455 638.824C38.2335 638.508 38.8351 638.357 39.3986 638.449C41.5682 638.738 43.8601 639.183 46.4047 639.815C46.93 639.943 47.3652 640.186 47.3732 640.164C52.9315 651.245 62.4842 658.303 76.5866 661.738C79.6545 662.474 82.8187 663.017 85.9909 663.35C89.3114 663.701 93.015 663.879 96.9952 663.879C102.509 663.879 106.442 663.539 106.49 663.535C118.713 662.167 129.152 659.416 138.398 655.123C142.192 653.364 146.515 650.996 149.838 646.767C150.473 645.957 150.367 644.788 149.595 644.108C140.203 635.821 130.64 629.799 120.356 625.7C105.118 619.645 91.2384 618.004 77.6333 620.621C75.6001 621.016 73.6149 621.514 71.6859 622.085C84.4128 614.477 96.5982 605.536 108.106 595.35C108.326 595.149 108.689 594.973 108.972 594.923C110.855 594.61 113.356 594.225 115.914 594.04C116.151 594.04 116.451 594.155 116.486 594.167C123.419 601.927 132.353 605.699 143.796 605.699C144.38 605.699 144.965 605.687 145.549 605.667C157.991 605.265 170.499 601.847 182.733 595.5C191.624 590.862 200.891 585.462 208.407 577.409C210.073 575.619 211.561 573.593 212.874 571.807L213.003 571.632C213.584 570.844 214.172 570.05 214.775 569.266C215.104 568.843 215.242 568.298 215.156 567.748C215.064 567.219 214.757 566.748 214.234 566.407C214.102 566.335 210.919 564.628 208.014 563.503C188.56 555.986 168.919 555.216 150.183 561.253C144.049 563.225 138.276 566.184 132.655 570.275C143.05 558.191 152.675 544.945 161.414 530.692C161.508 530.542 161.756 530.135 161.837 530.061C162.601 529.573 163.383 529.112 164.163 528.657C165.56 527.837 167.008 526.989 168.367 525.978C169.514 525.122 169.837 525.1 170.996 525.846C172.636 526.91 174.543 527.464 176.206 527.899C185.931 530.389 195.734 529.148 206.578 524.057C216.484 519.413 224.099 512.072 230.857 504.833C240.686 494.274 247.109 484.747 251.071 474.849C251.903 472.772 252.497 470.624 253.114 468.379C253.369 467.436 253.63 466.494 253.906 465.567C254.209 464.573 253.68 463.52 252.697 463.173L251.883 463.111C247.875 463.111 212.118 463.698 191.204 483.991C186.655 488.407 182.576 493.099 178.853 498.236C187.126 480.715 194.142 462.249 199.797 443.081L199.879 442.8C199.947 442.566 200.049 442.211 200.117 442.114L205.588 434.603C205.792 434.302 205.816 434.302 206.137 434.302C206.279 434.302 206.436 434.312 206.614 434.322L207.783 434.392C211.854 434.645 214.25 434.609 216.221 434.3C224.009 433.071 231.039 429.149 237.711 422.307C253.313 406.306 264.052 386.342 270.541 361.281C271.237 358.596 271.432 355.885 271.64 353.009C271.732 351.706 271.835 350.363 271.983 348.975C272.045 348.309 271.784 347.674 271.283 347.259Z"/>
    </symbol>


    <!-- Others -->
    <symbol id="back" viewBox="0 0 60 60">
      <path d="M19.6251 32.5L26.7501 39.625C27.2501 40.125 27.4896 40.7083 27.4688 41.375C27.448 42.0417 27.2084 42.625 26.7501 43.125C26.2501 43.625 25.6563 43.8854 24.9688 43.9062C24.2813 43.9271 23.6876 43.6875 23.1876 43.1875L11.7501 31.75C11.2501 31.25 11.0001 30.6667 11.0001 30C11.0001 29.3333 11.2501 28.75 11.7501 28.25L23.1876 16.8125C23.6876 16.3125 24.2813 16.0729 24.9688 16.0937C25.6563 16.1146 26.2501 16.375 26.7501 16.875C27.2084 17.375 27.448 17.9583 27.4688 18.625C27.4896 19.2917 27.2501 19.875 26.7501 20.375L19.6251 27.5H47.5001C48.2084 27.5 48.8021 27.7396 49.2813 28.2187C49.7605 28.6979 50.0001 29.2917 50.0001 30C50.0001 30.7083 49.7605 31.3021 49.2813 31.7812C48.8021 32.2604 48.2084 32.5 47.5001 32.5H19.6251Z"/>
    </symbol>
    <symbol id="bulb" viewBox="0 0 24 24">
      <path d="M10 18C9.45 18 8.97917 17.8042 8.5875 17.4125C8.19583 17.0208 8 16.55 8 16V14.75C7.05 14.1 6.3125 13.2667 5.7875 12.25C5.2625 11.2333 5 10.15 5 9C5 7.05 5.67917 5.39583 7.0375 4.0375C8.39583 2.67917 10.05 2 12 2C13.95 2 15.6042 2.67917 16.9625 4.0375C18.3208 5.39583 19 7.05 19 9C19 10.15 18.7375 11.2292 18.2125 12.2375C17.6875 13.2458 16.95 14.0833 16 14.75V16C16 16.55 15.8042 17.0208 15.4125 17.4125C15.0208 17.8042 14.55 18 14 18H10ZM10 16H14V13.7L14.85 13.1C15.5333 12.6333 16.0625 12.0375 16.4375 11.3125C16.8125 10.5875 17 9.81667 17 9C17 7.61667 16.5125 6.4375 15.5375 5.4625C14.5625 4.4875 13.3833 4 12 4C10.6167 4 9.4375 4.4875 8.4625 5.4625C7.4875 6.4375 7 7.61667 7 9C7 9.81667 7.1875 10.5875 7.5625 11.3125C7.9375 12.0375 8.46667 12.6333 9.15 13.1L10 13.7V16ZM10 22C9.71667 22 9.47917 21.9042 9.2875 21.7125C9.09583 21.5208 9 21.2833 9 21V20H15V21C15 21.2833 14.9042 21.5208 14.7125 21.7125C14.5208 21.9042 14.2833 22 14 22H10Z"/>
    </symbol>
    <symbol id="close" viewBox="0 0 60 60">
      <path d="M30.0009 34.4289L17.7509 46.6789C17.2925 47.1372 16.7092 47.3664 16.0009 47.3664C15.2925 47.3664 14.7092 47.1372 14.2509 46.6789C13.7925 46.2206 13.5634 45.6372 13.5634 44.9289C13.5634 44.2206 13.7925 43.6372 14.2509 43.1789L26.5009 30.9289L14.2509 18.6789C13.7925 18.2206 13.5634 17.6372 13.5634 16.9289C13.5634 16.2206 13.7925 15.6372 14.2509 15.1789C14.7092 14.7206 15.2925 14.4914 16.0009 14.4914C16.7092 14.4914 17.2925 14.7206 17.7509 15.1789L30.0009 27.4289L42.2509 15.1789C42.7092 14.7206 43.2925 14.4914 44.0009 14.4914C44.7092 14.4914 45.2925 14.7206 45.7509 15.1789C46.2092 15.6372 46.4384 16.2206 46.4384 16.9289C46.4384 17.6372 46.2092 18.2206 45.7509 18.6789L33.5009 30.9289L45.7509 43.1789C46.2092 43.6372 46.4384 44.2206 46.4384 44.9289C46.4384 45.6372 46.2092 46.2206 45.7509 46.6789C45.2925 47.1372 44.7092 47.3664 44.0009 47.3664C43.2925 47.3664 42.7092 47.1372 42.2509 46.6789L30.0009 34.4289Z"/>
    </symbol>
    <symbol id="hourglass" viewBox="0 0 24 24">
      <path d="M18 22L17.99 16L14 12L17.99 7.99L18 2H6V8L10 12L6 15.99V22H18ZM8 7.5V4H16V7.5L12 11.5L8 7.5Z"/>
    </symbol>
    <symbol id="info" viewBox="0 0 24 24">
      <path d="M13 8C13 8.55229 12.5523 9 12 9C11.4477 9 11 8.55229 11 8C11 7.44772 11.4477 7 12 7C12.5523 7 13 7.44772 13 8Z"/>
      <path d="M13 17V11H11V17H13Z"/>
      <path fill-rule="evenodd" clip-rule="evenodd" d="M12 22C17.5228 22 22 17.5228 22 12C22 6.47715 17.5228 2 12 2C6.47715 2 2 6.47715 2 12C2 17.5228 6.47715 22 12 22ZM12 20C16.4183 20 20 16.4183 20 12C20 7.58172 16.4183 4 12 4C7.58172 4 4 7.58172 4 12C4 16.4183 7.58172 20 12 20Z"/>
    </symbol>
    <symbol id="pin" viewBox="0 0 24 24">
      <path d="M12 19.35C14.0333 17.4833 15.5417 15.7875 16.525 14.2625C17.5083 12.7375 18 11.3833 18 10.2C18 8.38333 17.4208 6.89583 16.2625 5.7375C15.1042 4.57917 13.6833 4 12 4C10.3167 4 8.89583 4.57917 7.7375 5.7375C6.57917 6.89583 6 8.38333 6 10.2C6 11.3833 6.49167 12.7375 7.475 14.2625C8.45833 15.7875 9.96667 17.4833 12 19.35ZM12 21.325C11.7667 21.325 11.5333 21.2833 11.3 21.2C11.0667 21.1167 10.8583 20.9917 10.675 20.825C9.59167 19.825 8.63333 18.85 7.8 17.9C6.96667 16.95 6.27083 16.0292 5.7125 15.1375C5.15417 14.2458 4.72917 13.3875 4.4375 12.5625C4.14583 11.7375 4 10.95 4 10.2C4 7.7 4.80417 5.70833 6.4125 4.225C8.02083 2.74167 9.88333 2 12 2C14.1167 2 15.9792 2.74167 17.5875 4.225C19.1958 5.70833 20 7.7 20 10.2C20 10.95 19.8542 11.7375 19.5625 12.5625C19.2708 13.3875 18.8458 14.2458 18.2875 15.1375C17.7292 16.0292 17.0333 16.95 16.2 17.9C15.3667 18.85 14.4083 19.825 13.325 20.825C13.1417 20.9917 12.9333 21.1167 12.7 21.2C12.4667 21.2833 12.2333 21.325 12 21.325ZM12 12C12.55 12 13.0208 11.8042 13.4125 11.4125C13.8042 11.0208 14 10.55 14 10C14 9.45 13.8042 8.97917 13.4125 8.5875C13.0208 8.19583 12.55 8 12 8C11.45 8 10.9792 8.19583 10.5875 8.5875C10.1958 8.97917 10 9.45 10 10C10 10.55 10.1958 11.0208 10.5875 11.4125C10.9792 11.8042 11.45 12 12 12Z"/>
    </symbol>
    <symbol id="document" viewBox="0 0 24 24">
      <path d="M8 13H16V11H8V13ZM8 16H16V14H8V16ZM8 19H13V17H8V19ZM6 22C5.45 22 4.97917 21.8042 4.5875 21.4125C4.19583 21.0208 4 20.55 4 20V4C4 3.45 4.19583 2.97917 4.5875 2.5875C4.97917 2.19583 5.45 2 6 2H14L20 8V20C20 20.55 19.8042 21.0208 19.4125 21.4125C19.0208 21.8042 18.55 22 18 22H6ZM13 9V4H6V20H18V9H13Z"/>
    </symbol>
    <symbol id="warning" viewBox="0 0 24 24">
      <path d="M2.72479 21C2.54146 21 2.37479 20.9542 2.22479 20.8625C2.07479 20.7708 1.95812 20.65 1.87479 20.5C1.79146 20.35 1.74562 20.1875 1.73729 20.0125C1.72896 19.8375 1.77479 19.6667 1.87479 19.5L11.1248 3.5C11.2248 3.33333 11.354 3.20833 11.5123 3.125C11.6706 3.04167 11.8331 3 11.9998 3C12.1665 3 12.329 3.04167 12.4873 3.125C12.6456 3.20833 12.7748 3.33333 12.8748 3.5L22.1248 19.5C22.2248 19.6667 22.2706 19.8375 22.2623 20.0125C22.254 20.1875 22.2081 20.35 22.1248 20.5C22.0415 20.65 21.9248 20.7708 21.7748 20.8625C21.6248 20.9542 21.4581 21 21.2748 21H2.72479ZM4.44979 19H19.5498L11.9998 6L4.44979 19ZM11.9998 18C12.2831 18 12.5206 17.9042 12.7123 17.7125C12.904 17.5208 12.9998 17.2833 12.9998 17C12.9998 16.7167 12.904 16.4792 12.7123 16.2875C12.5206 16.0958 12.2831 16 11.9998 16C11.7165 16 11.479 16.0958 11.2873 16.2875C11.0956 16.4792 10.9998 16.7167 10.9998 17C10.9998 17.2833 11.0956 17.5208 11.2873 17.7125C11.479 17.9042 11.7165 18 11.9998 18ZM11.9998 15C12.2831 15 12.5206 14.9042 12.7123 14.7125C12.904 14.5208 12.9998 14.2833 12.9998 14V11C12.9998 10.7167 12.904 10.4792 12.7123 10.2875C12.5206 10.0958 12.2831 10 11.9998 10C11.7165 10 11.479 10.0958 11.2873 10.2875C11.0956 10.4792 10.9998 10.7167 10.9998 11V14C10.9998 14.2833 11.0956 14.5208 11.2873 14.7125C11.479 14.9042 11.7165 15 11.9998 15Z"/>
    </symbol>
    <symbol id="download" viewBox="0 0 24 24">
      <path d="M12 16L7 11L8.4 9.55L11 12.15V4H13V12.15L15.6 9.55L17 11L12 16ZM6 20C5.45 20 4.97917 19.8042 4.5875 19.4125C4.19583 19.0208 4 18.55 4 18V15H6V18H18V15H20V18C20 18.55 19.8042 19.0208 19.4125 19.4125C19.0208 19.8042 18.55 20 18 20H6Z"/>
    </symbol>
    <symbol id="location" viewBox="0 0 34 33">
        <path d="M14 17.35C16.0333 15.4833 17.5416 13.7875 18.525 12.2625C19.5083 10.7375 20 9.38333 20 8.2C20 6.38333 19.4208 4.89583 18.2625 3.7375C17.1041 2.57917 15.6833 2 14 2C12.3166 2 10.8958 2.57917 9.73748 3.7375C8.57914 4.89583 7.99998 6.38333 7.99998 8.2C7.99998 9.38333 8.49164 10.7375 9.47498 12.2625C10.4583 13.7875 11.9666 15.4833 14 17.35ZM14 19.325C13.7666 19.325 13.5333 19.2833 13.3 19.2C13.0666 19.1167 12.8583 18.9917 12.675 18.825C11.5916 17.825 10.6333 16.85 9.79998 15.9C8.96664 14.95 8.27081 14.0292 7.71248 13.1375C7.15414 12.2458 6.72914 11.3875 6.43748 10.5625C6.14581 9.7375 5.99998 8.95 5.99998 8.2C5.99998 5.7 6.80414 3.70833 8.41248 2.225C10.0208 0.741667 11.8833 0 14 0C16.1166 0 17.9791 0.741667 19.5875 2.225C21.1958 3.70833 22 5.7 22 8.2C22 8.95 21.8541 9.7375 21.5625 10.5625C21.2708 11.3875 20.8458 12.2458 20.2875 13.1375C19.7291 14.0292 19.0333 14.95 18.2 15.9C17.3666 16.85 16.4083 17.825 15.325 18.825C15.1416 18.9917 14.9333 19.1167 14.7 19.2C14.4666 19.2833 14.2333 19.325 14 19.325ZM14 10C14.55 10 15.0208 9.80417 15.4125 9.4125C15.8041 9.02083 16 8.55 16 8C16 7.45 15.8041 6.97917 15.4125 6.5875C15.0208 6.19583 14.55 6 14 6C13.45 6 12.9791 6.19583 12.5875 6.5875C12.1958 6.97917 12 7.45 12 8C12 8.55 12.1958 9.02083 12.5875 9.4125C12.9791 9.80417 13.45 10 14 10Z"/>
        <path d="M26 11L26.0986 11.0049C26.3276 11.0276 26.5429 11.1288 26.707 11.293L28.1972 12.7832L29.5527 12.1055C29.9377 11.913 30.4026 11.9886 30.707 12.293L33.707 15.293C34.013 15.599 34.0876 16.0673 33.8916 16.4531L32.8916 18.4219C32.7236 18.7523 32.3863 18.9629 32.0156 18.9688L30.622 18.9902L26.8945 26.4473C26.8251 26.5861 26.7238 26.7067 26.5996 26.7998L22.5996 29.7998C22.4265 29.9296 22.2163 30 22 30H17.2773L12.5146 32.8574C12.3013 32.9854 12.0476 33.0293 11.8037 32.9805L6.80369 31.9805C6.61017 31.9417 6.4325 31.8466 6.29294 31.707L2.29294 27.707C2.24638 27.6605 2.20447 27.6095 2.16794 27.5547L0.167945 24.5547C-0.0964705 24.1581 -0.0441199 23.63 0.292945 23.293L1.12595 22.459L1.9199 20.0771L1.10544 18.4473C0.951283 18.1389 0.96677 17.7727 1.14646 17.4785C1.32611 17.1845 1.64468 17.0037 1.98923 17L3.99998 16.9785V16C3.99998 15.6325 4.20199 15.2947 4.52537 15.1201C4.84868 14.9457 5.24166 14.9625 5.5488 15.1641L8.5488 17.1328C9.01033 17.4359 9.13885 18.0559 8.83591 18.5176C8.53284 18.9791 7.91279 19.1076 7.45115 18.8047L5.99998 17.8516V17.9688C5.99989 18.5168 5.55871 18.9629 5.01072 18.9688L3.60935 18.9824L3.89451 19.5527C4.01312 19.79 4.03209 20.0648 3.94822 20.3164L2.94822 23.3164C2.89911 23.4636 2.81671 23.5973 2.70701 23.707L2.28611 24.127L3.77732 26.3633L7.49216 30.0781L11.8164 30.9434L16.4853 28.1426L16.6064 28.0811C16.7304 28.028 16.8642 28 17 28H21.667L25.2099 25.3418L29.1054 17.5527C29.2723 17.219 29.6113 17.0059 29.9844 17L31.3808 16.9775L31.7793 16.1934L29.8027 14.2168L28.4472 14.8945C28.0623 15.087 27.5973 15.0114 27.2929 14.707L25.5859 13H25.414L23.707 14.707C23.3165 15.0976 22.6835 15.0976 22.2929 14.707C21.9024 14.3165 21.9024 13.6835 22.2929 13.293L24.2929 11.293L24.3662 11.2266C24.5441 11.0807 24.7679 11 25 11H26Z" fill="#444"/>
    </symbol>
    <symbol id="document-large" viewBox="0 0 24 24">
      <path d="M8.8845 12.3077H15.1155C15.2572 12.3077 15.3759 12.2597 15.4718 12.1637C15.5676 12.0677 15.6155 11.9488 15.6155 11.807C15.6155 11.6652 15.5676 11.5465 15.4718 11.451C15.3759 11.3555 15.2572 11.3077 15.1155 11.3077H8.8845C8.74283 11.3077 8.62408 11.3558 8.52825 11.4518C8.43242 11.5476 8.3845 11.6664 8.3845 11.8082C8.3845 11.9502 8.43242 12.069 8.52825 12.1645C8.62408 12.26 8.74283 12.3077 8.8845 12.3077ZM8.8845 15.077H15.1155C15.2572 15.077 15.3759 15.029 15.4718 14.933C15.5676 14.837 15.6155 14.7181 15.6155 14.5763C15.6155 14.4344 15.5676 14.3158 15.4718 14.2203C15.3759 14.1248 15.2572 14.077 15.1155 14.077H8.8845C8.74283 14.077 8.62408 14.1249 8.52825 14.2207C8.43242 14.3167 8.3845 14.4357 8.3845 14.5775C8.3845 14.7195 8.43242 14.8383 8.52825 14.9338C8.62408 15.0293 8.74283 15.077 8.8845 15.077ZM8.8845 17.8462H12.1155C12.2572 17.8462 12.3759 17.7982 12.4717 17.7022C12.5676 17.6062 12.6155 17.4873 12.6155 17.3455C12.6155 17.2037 12.5676 17.085 12.4717 16.9895C12.3759 16.894 12.2572 16.8462 12.1155 16.8462H8.8845C8.74283 16.8462 8.62408 16.8942 8.52825 16.99C8.43242 17.086 8.3845 17.2049 8.3845 17.3468C8.3845 17.4886 8.43242 17.6073 8.52825 17.703C8.62408 17.7985 8.74283 17.8462 8.8845 17.8462ZM6.6155 21C6.15517 21 5.77083 20.8458 5.4625 20.5375C5.15417 20.2292 5 19.8448 5 19.3845V4.6155C5 4.15517 5.15417 3.77083 5.4625 3.4625C5.77083 3.15417 6.15517 3 6.6155 3H13.8288C14.0499 3 14.2607 3.04358 14.461 3.13075C14.6613 3.21792 14.8339 3.33392 14.9788 3.47875L18.5212 7.02125C18.6661 7.16608 18.7821 7.33867 18.8693 7.539C18.9564 7.73933 19 7.95008 19 8.17125V19.3845C19 19.8448 18.8458 20.2292 18.5375 20.5375C18.2292 20.8458 17.8448 21 17.3845 21H6.6155ZM18 8H15.2115C14.875 8 14.5889 7.88225 14.3533 7.64675C14.1178 7.41108 14 7.125 14 6.7885V4H6.6155C6.4615 4 6.32042 4.06408 6.19225 4.19225C6.06408 4.32042 6 4.4615 6 4.6155V19.3845C6 19.5385 6.06408 19.6796 6.19225 19.8078C6.32042 19.9359 6.4615 20 6.6155 20H17.3845C17.5385 20 17.6796 19.9359 17.8077 19.8078C17.9359 19.6796 18 19.5385 18 19.3845V8Z"/>
    </symbol>
    <symbol id="document-medium" viewBox="0 0 24 24">
      <path d="M8.94225 12.6538H15.0577C15.2702 12.6538 15.4483 12.5818 15.592 12.438C15.7358 12.2943 15.8077 12.1162 15.8077 11.9035C15.8077 11.6908 15.7358 11.5128 15.592 11.3693C15.4483 11.2256 15.2702 11.1538 15.0577 11.1538H8.94225C8.72975 11.1538 8.55167 11.2257 8.408 11.3695C8.26417 11.5133 8.19225 11.6916 8.19225 11.9043C8.19225 12.1168 8.26417 12.2948 8.408 12.4385C8.55167 12.582 8.72975 12.6538 8.94225 12.6538ZM8.94225 15.5385H15.0577C15.2702 15.5385 15.4483 15.4666 15.592 15.3228C15.7358 15.1789 15.8077 15.0007 15.8077 14.788C15.8077 14.5755 15.7358 14.3974 15.592 14.2537C15.4483 14.1102 15.2702 14.0385 15.0577 14.0385H8.94225C8.72975 14.0385 8.55167 14.1104 8.408 14.2543C8.26417 14.3981 8.19225 14.5762 8.19225 14.7887C8.19225 15.0014 8.26417 15.1795 8.408 15.323C8.55167 15.4667 8.72975 15.5385 8.94225 15.5385ZM8.94225 18.423H12.0578C12.2703 18.423 12.4483 18.3511 12.592 18.2072C12.7358 18.0634 12.8077 17.8853 12.8077 17.6728C12.8077 17.4601 12.7358 17.282 12.592 17.1385C12.4483 16.9948 12.2703 16.923 12.0578 16.923H8.94225C8.72975 16.923 8.55167 16.9949 8.408 17.1388C8.26417 17.2826 8.19225 17.4608 8.19225 17.6735C8.19225 17.886 8.26417 18.0641 8.408 18.2078C8.55167 18.3513 8.72975 18.423 8.94225 18.423ZM6.30775 21.5C5.80258 21.5 5.375 21.325 5.025 20.975C4.675 20.625 4.5 20.1974 4.5 19.6923V4.30775C4.5 3.80258 4.675 3.375 5.025 3.025C5.375 2.675 5.80258 2.5 6.30775 2.5H13.502C13.7458 2.5 13.9782 2.54683 14.1992 2.6405C14.4202 2.734 14.6128 2.86283 14.777 3.027L18.973 7.223C19.1372 7.38717 19.266 7.57975 19.3595 7.80075C19.4532 8.02175 19.5 8.25417 19.5 8.498V19.6923C19.5 20.1974 19.325 20.625 18.975 20.975C18.625 21.325 18.1974 21.5 17.6923 21.5H6.30775ZM18 8.5H14.8558C14.4793 8.5 14.1592 8.36817 13.8955 8.1045C13.6318 7.84083 13.5 7.52075 13.5 7.14425V4H6.30775C6.23075 4 6.16025 4.03208 6.09625 4.09625C6.03208 4.16025 6 4.23075 6 4.30775V19.6923C6 19.7693 6.03208 19.8398 6.09625 19.9038C6.16025 19.9679 6.23075 20 6.30775 20H17.6923C17.7693 20 17.8398 19.9679 17.9038 19.9038C17.9679 19.8398 18 19.7693 18 19.6923V8.5Z"/>
    </symbol>





    <!-- Rule icons -->
    <symbol id="rule-goal" viewBox="0 0 24 24">
      <path d="M12 18C10.3333 18 8.91667 17.4167 7.75 16.25C6.58333 15.0833 6 13.6667 6 12C6 10.3333 6.58333 8.91667 7.75 7.75C8.91667 6.58333 10.3333 6 12 6C13.6667 6 15.0833 6.58333 16.25 7.75C17.4167 8.91667 18 10.3333 18 12C18 13.6667 17.4167 15.0833 16.25 16.25C15.0833 17.4167 13.6667 18 12 18ZM12 16C13.1 16 14.0417 15.6083 14.825 14.825C15.6083 14.0417 16 13.1 16 12C16 10.9 15.6083 9.95833 14.825 9.175C14.0417 8.39167 13.1 8 12 8C10.9 8 9.95833 8.39167 9.175 9.175C8.39167 9.95833 8 10.9 8 12C8 13.1 8.39167 14.0417 9.175 14.825C9.95833 15.6083 10.9 16 12 16Z"/>
    </symbol>
    <symbol id="rule-lose" viewBox="0 0 24 24">
      <path d="M11.9998 13.4L9.0998 16.3C8.91647 16.4833 8.68314 16.575 8.3998 16.575C8.11647 16.575 7.88314 16.4833 7.6998 16.3C7.51647 16.1167 7.4248 15.8833 7.4248 15.6C7.4248 15.3167 7.51647 15.0833 7.6998 14.9L10.5998 12L7.6998 9.12501C7.51647 8.94168 7.4248 8.70835 7.4248 8.42501C7.4248 8.14168 7.51647 7.90835 7.6998 7.72501C7.88314 7.54168 8.11647 7.45001 8.3998 7.45001C8.68314 7.45001 8.91647 7.54168 9.0998 7.72501L11.9998 10.625L14.8748 7.72501C15.0581 7.54168 15.2915 7.45001 15.5748 7.45001C15.8581 7.45001 16.0915 7.54168 16.2748 7.72501C16.4748 7.92501 16.5748 8.16251 16.5748 8.43751C16.5748 8.71251 16.4748 8.94168 16.2748 9.12501L13.3748 12L16.2748 14.9C16.4581 15.0833 16.5498 15.3167 16.5498 15.6C16.5498 15.8833 16.4581 16.1167 16.2748 16.3C16.0748 16.5 15.8373 16.6 15.5623 16.6C15.2873 16.6 15.0581 16.5 14.8748 16.3L11.9998 13.4Z"/>
    </symbol>
    <symbol id="rule-play" viewBox="0 0 24 24">
      <path d="M7 17.35V7C7 6.71667 7.1 6.47917 7.3 6.2875C7.5 6.09583 7.73333 6 8 6C8.08333 6 8.17083 6.0125 8.2625 6.0375C8.35417 6.0625 8.44167 6.1 8.525 6.15L16.675 11.325C16.825 11.425 16.9375 11.55 17.0125 11.7C17.0875 11.85 17.125 12.0083 17.125 12.175C17.125 12.3417 17.0875 12.5 17.0125 12.65C16.9375 12.8 16.825 12.925 16.675 13.025L8.525 18.2C8.44167 18.25 8.35417 18.2875 8.2625 18.3125C8.17083 18.3375 8.08333 18.35 8 18.35C7.73333 18.35 7.5 18.2542 7.3 18.0625C7.1 17.8708 7 17.6333 7 17.35ZM9 15.525L14.25 12.175L9 8.825V15.525Z"/>
    </symbol>
  </defs>
</svg>