<svg width="64" height="64" viewBox="0 0 64 64" fill="none" xmlns="http://www.w3.org/2000/svg">
<path fill-rule="evenodd" clip-rule="evenodd" d="M56.8889 64H7.11111C3.18375 64 0 60.8163 0 56.8889V7.11111C0 3.18375 3.18375 0 7.11111 0H56.8889C60.8163 0 64 3.18375 64 7.11111V56.8889C64 60.8163 60.8163 64 56.8889 64ZM45.6139 55.1111H55.1111V35.6011C55.1111 27.3462 50.4317 23.3549 43.8956 23.3549C37.3565 23.3549 34.6045 28.447 34.6045 28.447V24.2963H25.4519V55.1111H34.6045V38.9352C34.6045 34.601 36.5997 32.0218 40.4184 32.0218C43.9287 32.0218 45.6139 34.5002 45.6139 38.9352V55.1111ZM8.88889 14.5751C8.88889 17.7153 11.4152 20.2613 14.5328 20.2613C17.6503 20.2613 20.1751 17.7153 20.1751 14.5751C20.1751 11.435 17.6503 8.88889 14.5328 8.88889C11.4152 8.88889 8.88889 11.435 8.88889 14.5751ZM19.3506 55.1111H9.80671V24.2963H19.3506V55.1111Z" fill="black"/>
</svg>
