<svg width="64" height="64" viewBox="0 0 64 64" fill="none" xmlns="http://www.w3.org/2000/svg">
<path fill-rule="evenodd" clip-rule="evenodd" d="M57.0414 10.3765C59.7828 11.1177 61.9442 13.2883 62.6823 16.0412C64.053 21.0707 64.0003 31.5531 64.0003 31.5531C64.0003 31.5531 64.0003 41.9826 62.6823 47.0121C61.9442 49.765 59.7828 51.9356 57.0414 52.6768C52.0331 54.0004 32.0001 54.0004 32.0001 54.0004C32.0001 54.0004 12.0198 54.0004 6.95884 52.6239C4.21748 51.8827 2.05602 49.7121 1.31796 46.9591C0 41.9826 0 31.5002 0 31.5002C0 31.5002 0 21.0707 1.31796 16.0412C2.05602 13.2883 4.2702 11.0647 6.95884 10.3235C11.9671 9 32.0001 9 32.0001 9C32.0001 9 52.0331 9 57.0414 10.3765ZM25.6211 21.8648L42.2801 31.5002L25.6211 41.1355V21.8648Z" fill="black"/>
</svg>
